SplineFontDB: 3.2
FontName: AurebeshTypewriter-Regular
FullName: Aurebesh Typewriter Regular
FamilyName: AurebeshTypewriter
Weight: Regular
Copyright: CC-0 Public Domain
Version: 1
ItalicAngle: 0
UnderlinePosition: 0
UnderlineWidth: 0
Ascent: 800
Descent: 200
InvalidEm: 0
sfntRevision: 0x00010000
LayerCount: 2
Layer: 0 0 "Back" 1
Layer: 1 0 "Fore" 0
XUID: [1021 178 1911899458 16795]
StyleMap: 0x0040
FSType: 8
OS2Version: 3
OS2_WeightWidthSlopeOnly: 0
OS2_UseTypoMetrics: 0
CreationTime: 1585611210
ModificationTime: 1589767420
PfmFamily: 17
TTFWeight: 400
TTFWidth: 5
LineGap: 90
VLineGap: 0
Panose: 2 0 5 3 0 0 0 0 0 0
OS2TypoAscent: 800
OS2TypoAOffset: 0
OS2TypoDescent: -200
OS2TypoDOffset: 0
OS2TypoLinegap: 90
OS2WinAscent: 859
OS2WinAOffset: 0
OS2WinDescent: 190
OS2WinDOffset: 0
HheadAscent: 859
HheadAOffset: 0
HheadDescent: -190
HheadDOffset: 0
OS2SubXSize: 650
OS2SubYSize: 699
OS2SubXOff: 0
OS2SubYOff: 140
OS2SupXSize: 650
OS2SupYSize: 699
OS2SupXOff: 0
OS2SupYOff: 479
OS2StrikeYSize: 49
OS2StrikeYPos: 258
OS2CapHeight: 740
OS2XHeight: 506
OS2Vendor: 'PfEd'
OS2CodePages: 00000001.00000000
OS2UnicodeRanges: 00000001.00000000.00000000.00000000
MarkAttachClasses: 1
DEI: 91125
LangName: 1033 "" "" "" "" "" "" "" "" "" "" "" "" "" "" "" "" "Aurebesh_Typewriter"
Encoding: UnicodeBmp
UnicodeInterp: none
NameList: AGL For New Fonts
DisplaySize: -72
AntiAlias: 1
FitToEm: 0
WinInfo: 64 8 2
BeginPrivate: 7
BlueValues 34 [-157 -40 502 509 506 509 740 741]
BlueScale 10 0.00846154
BlueShift 1 0
StdHW 4 [80]
StdVW 4 [80]
StemSnapH 16 [76 77 79 80 81]
StemSnapV 20 [78 79 80 81 84 120]
EndPrivate
BeginChars: 65536 79

StartChar: ltr65
Encoding: 65 65 1
Width: 650
GlyphClass: 2
Flags: MW
HStem: -40 80<0 43 123 167 333 346.23 438.143 500> 660 80<0 43 43 43 123 167 333 346.23 346.23 346.23 438.143 500>
LayerCount: 2
Fore
SplineSet
0 -40 m 2
 167 -40 l 2
 220 -40 220 40 167 40 c 2
 123 40 l 1
 123 240 l 1
 227 240 l 1
 346.23046875 40 l 1
 333 40 l 2
 280 40 280 -40 333 -40 c 2
 411.510742188 -40 l 2
 413.92578125 -40.23046875 416.3515625 -40.224609375 418.7578125 -40 c 2
 500 -40 l 2
 553 -40 553 40 500 40 c 2
 438.142578125 40 l 1
 284 300 l 2
 277 313 265 320 250 320 c 2
 83 320 l 2
 61 320 43 302 43 280 c 2
 43 40 l 1
 0 40 l 2
 -53 40 -53 -40 0 -40 c 2
346.23046875 660 m 1
 227 460 l 1
 123 460 l 1
 123 660 l 1
 167 660 l 2
 220 660 220 740 167 740 c 2
 0 740 l 2
 -53 740 -53 660 0 660 c 2
 43 660 l 1
 43 420 l 2
 43 398 61 380 83 380 c 2
 250 380 l 2
 265 380 277 387 284 400 c 2
 438.142578125 660 l 1
 500 660 l 2
 553 660 553 740 500 740 c 2
 418.7578125 740 l 2
 416.3515625 740.224609375 413.92578125 740.23046875 411.510742188 740 c 2
 333 740 l 2
 280 740 280 660 333 660 c 2
 346.23046875 660 l 1
EndSplineSet
EndChar

StartChar: ltr66
Encoding: 66 66 2
Width: 650
GlyphClass: 2
Flags: MW
HStem: -40 80 309 80 658.232 21G 660 80
VStem: -40 80<184 259.5 184 259.5 452.749 465.999> 460 80<-26.5 233 0 36.8535 184 233 233 246.25 439.499 514.499>
LayerCount: 2
Fore
SplineSet
-40 233 m 0xcc
 -40 97 54 -40.0009765625 250 -40.0009765625 c 0
 342.379882812 -40.0009765625 412.100585938 -9.56640625 460 36.853515625 c 1
 460 0 l 2
 460 -53 540 -53 540 0 c 2
 540 233 l 2
 540 259.5 520 272.75 500 272.75 c 0
 480 272.75 460 259.5 460 233 c 0
 460 135 388 40 250 40 c 0
 112 40 40 135 40 233 c 0
 40 286 -40 286 -40 233 c 0xcc
167 308.999023438 m 2
 333 308.999023438 l 2
 386 308.999023438 386 388.999023438 333 388.999023438 c 2
 167 388.999023438 l 2
 114 388.999023438 114 308.999023438 167 308.999023438 c 2
0 426.249023438 m 0
 20 426.249023438 40 439.499023438 40 465.999023438 c 0
 40 562.999023438 112 659.999023438 250 659.999023438 c 0
 388 659.999023438 460 562.999023438 460 465.999023438 c 0
 460 412.999023438 540 412.999023438 540 465.999023438 c 0
 540 600.999023438 446 739.999023438 250 739.999023438 c 0xdc
 154.944335938 739.999023438 83.87890625 707.305664062 35.892578125 658.23046875 c 1xec
 35 699.999023438 l 2
 35 752.999023438 -45 752.999023438 -45 699.999023438 c 2
 -40 465.999023438 l 2
 -40 439.499023438 -20 426.249023438 0 426.249023438 c 0
EndSplineSet
EndChar

StartChar: ltr67
Encoding: 67 67 3
Width: 650
GlyphClass: 2
Flags: MW
HStem: -40 80<306.5 333> 660 80<0 43 43 43>
VStem: 210 80
LayerCount: 2
Fore
SplineSet
333 -40 m 2
 500.000976562 -39.9990234375 l 2
 553.000976562 -39.9990234375 553.000976562 40.0009765625 500.000976562 40.0009765625 c 2
 456.000976562 40.0009765625 l 1
 456.000976562 426.000976562 l 1
 500.000976562 426.000976562 l 2
 553.000976562 426.000976562 553.000976562 506.000976562 500.000976562 506.000976562 c 2
 416.000976562 506.000976562 l 2
 403.471679688 506.000976562 393.904296875 501.530273438 387.298828125 494.702148438 c 0
 380.470703125 488.096679688 376 478.529296875 376 466 c 2
 376 40 l 1
 333 40 l 2
 280 40 280 -40 333 -40 c 2
210.000976562 466.000976562 m 2
 210.000976562 233.000976562 l 2
 210.000976562 180.000976562 290.000976562 180.000976562 290.000976562 233.000976562 c 2
 290.000976562 466.000976562 l 2
 290.000976562 519.000976562 210.000976562 519.000976562 210.000976562 466.000976562 c 2
123.000976562 660.000976562 m 1
 167 660 l 2
 220 660 220 740 167 740 c 2
 0 740 l 2
 -53 740 -53 660 0 660 c 2
 43 660 l 1
 43 273 l 1
 0 273 l 2
 -53 273 -53 193 0 193 c 2
 83 193 l 2
 95.529296875 193 105.096679688 197.470703125 111.702148438 204.298828125 c 0
 118.530273438 210.904296875 123.000976562 220.471679688 123.000976562 233.000976562 c 2
 123.000976562 660.000976562 l 1
EndSplineSet
EndChar

StartChar: ltr68
Encoding: 68 68 4
Width: 650
GlyphClass: 2
Flags: MW
HStem: -40 80 640 20G<39.1465 370.665 370.665 370.665>
VStem: 127 80<466 492.5>
LayerCount: 2
Fore
SplineSet
127 466 m 2
 127.000976562 233.000976562 l 2
 127.000976562 180.000976562 207.000976562 180.000976562 207.000976562 233.000976562 c 2
 207.000976562 309.000976562 l 1
 329.046875 309.000976562 l 1
 297.151367188 40.0009765625 l 1
 250.000976562 40.0009765625 l 2
 197.000976562 40.0009765625 197.000976562 -39.9990234375 250.000976562 -39.9990234375 c 2
 330.71484375 -39.9990234375 l 2
 332.71875 -40.1337890625 334.73046875 -39.9990234375 336.729492188 -39.9990234375 c 2
 416.000976562 -39.9990234375 l 2
 469.000976562 -39.9990234375 469.000976562 40.0009765625 416.000976562 40.0009765625 c 2
 378.336914062 40.0009765625 l 1
 451.8515625 660.000976562 l 1
 500.001953125 660.000976562 l 2
 553.001953125 660.000976562 553.001953125 740.000976562 500.001953125 740.000976562 c 2
 418.288085938 740.000976562 l 2
 416.284179688 740.135742188 414.272460938 740.000976562 412.2734375 740.000976562 c 2
 0.001953125 740.000976562 l 2
 -12.52734375 740.000976562 -22.0947265625 735.530273438 -28.7001953125 728.702148438 c 0
 -35.5283203125 722.096679688 -39.9990234375 712.529296875 -39.9990234375 700 c 2
 -44.9990234375 466 l 2
 -44.9990234375 413 35.0009765625 413 35.0009765625 466 c 2
 39.146484375 660 l 1
 370.665039062 660 l 1
 338.49609375 388.69921875 l 2
 336.732421875 388.897460938 334.900390625 389 333 389 c 2
 207 389 l 1
 207 466 l 2
 207 519 127 519 127 466 c 2
EndSplineSet
EndChar

StartChar: ltr69
Encoding: 69 69 5
Width: 650
GlyphClass: 2
Flags: MW
HStem: -40 80<333 376 455.999 499.999> 660 80<0 49.7988 49.7988 49.7988 130.339 166.999 366 376 376 376 455.999 499.999>
LayerCount: 2
Fore
SplineSet
333 -40 m 2
 499.999023438 -40 l 2
 552.999023438 -40 552.999023438 40 499.999023438 40 c 2
 455.999023438 40 l 1
 455.999023438 660 l 1
 499.999023438 660 l 2
 552.999023438 660 552.999023438 740 499.999023438 740 c 2
 332.999023438 740 l 2
 312.999023438 740 296.999023438 726 293.999023438 707 c 2
 206.999023438 228 l 1
 130.338867188 660 l 1
 166.999023438 660 l 2
 219.999023438 660 219.999023438 740 166.999023438 740 c 2
 84.7099609375 740 l 2
 83.83984375 740.025390625 82.96875 740 82.0986328125 740 c 2
 0 740 l 2
 -53 740 -53 660 0 660 c 2
 49.798828125 660 l 1
 167 -7 l 2
 173 -46 238 -46 245 -7 c 2
 366 660 l 1
 376 660 l 1
 376 40 l 1
 333 40 l 2
 280 40 280 -40 333 -40 c 2
EndSplineSet
EndChar

StartChar: ltr70
Encoding: 70 70 6
Width: 650
GlyphClass: 2
Flags: MW
HStem: 428.662 77.8422 660 80<167 210 210 210 290 333>
VStem: 461.717 78.2833 470 80
LayerCount: 2
Fore
SplineSet
0 -40 m 2xe0
 499.997070312 -40.001953125 l 2
 512.526367188 -40.001953125 522.09375 -35.53125 528.69921875 -28.703125 c 0
 535.52734375 -22.09765625 539.998046875 -12.5302734375 539.998046875 -0.0009765625 c 2xe0
 549.998046875 232.999023438 l 2
 549.998046875 285.999023438 469.998046875 285.999023438 469.998046875 232.999023438 c 0xd0
 467.237304688 168.666015625 464.4765625 104.333007812 461.715820312 40 c 1
 289.999023438 40 l 1
 289.999023438 433.729492188 l 1
 419.599609375 446.131835938 474.330078125 478.00390625 531.999023438 559 c 0
 563.999023438 602 498.999023438 649 467.999023438 605 c 0
 423.3046875 543.333007812 377.009765625 519.754882812 290 510.90625 c 1
 290 660 l 1
 333 660 l 2
 386 660 386 740 333 740 c 2
 167 740 l 2
 114 740 114 660 167 660 c 2
 210 660 l 1
 210 506.50390625 l 1
 154.322265625 505.206054688 85.9326171875 506 0 506 c 0
 -53 506 -53 426 -0 426 c 0
 14.794921875 426 29.1220703125 426.013671875 43 426.047851562 c 1
 43 40 l 1
 0 40 l 2
 -53 40 -53 -40 0 -40 c 2xe0
122.997070312 39.998046875 m 1
 122.997070312 426.587890625 l 1
 154.671875 426.985351562 183.5546875 427.630859375 209.997070312 428.659179688 c 1
 209.997070312 39.998046875 l 1
 122.997070312 39.998046875 l 1
EndSplineSet
EndChar

StartChar: ltr71
Encoding: 71 71 7
Width: 650
GlyphClass: 2
Flags: MW
HStem: -40 80 660 80
VStem: 460 80
LayerCount: 2
Fore
SplineSet
235 700 m 2
 230.001953125 466.002929688 l 2
 230.001953125 413.002929688 310.001953125 413.002929688 310.001953125 466.002929688 c 2
 314.147460938 660.002929688 l 1
 460.001953125 660.002929688 l 1
 460.001953125 478.666992188 461.903320312 260.262695312 311.8828125 40.001953125 c 1
 123.001953125 40.001953125 l 1
 123.001953125 660.001953125 l 1
 167.001953125 660.001953125 l 2
 220.001953125 660.001953125 220.001953125 740.001953125 167.001953125 740.001953125 c 2
 0.001953125 740.001953125 l 2
 -52.998046875 740.001953125 -52.998046875 660.001953125 0.001953125 660.001953125 c 2
 43.001953125 660.001953125 l 1
 43.001953125 40.001953125 l 1
 0.001953125 40.001953125 l 2
 -52.998046875 40.001953125 -52.998046875 -39.998046875 0.001953125 -39.998046875 c 2
 326.678710938 -39.998046875 l 2
 335.137695312 -41.5419921875 344.111328125 -40.4013671875 352.329101562 -35.640625 c 0
 358.946289062 -32.2529296875 363.955078125 -27.125 367.356445312 -21.103515625 c 0
 538.01171875 218.26953125 540.000976562 458.637695312 540.000976562 700.000976562 c 0
 540.000976562 722.000976562 522.000976562 740.000976562 500.000976562 740.000976562 c 2
 275.000976562 740.000976562 l 2
 262.471679688 740.000976562 252.904296875 735.530273438 246.298828125 728.702148438 c 0
 239.470703125 722.096679688 235 712.529296875 235 700 c 2
EndSplineSet
EndChar

StartChar: ltr72
Encoding: 72 72 8
Width: 650
GlyphClass: 2
Flags: MW
HStem: 309 80<167 333> 640 20G
VStem: -40 79.1416 460.858 79.1416
LayerCount: 2
Fore
SplineSet
167 309 m 2
 333 309 l 2
 386 309 386 389 333 389 c 2
 167 389 l 2
 114 389 114 309 167 309 c 2
-45 233 m 2
 -40 -0.0009765625 l 2
 -40 -12.5302734375 -35.529296875 -22.09765625 -28.701171875 -28.703125 c 0
 -22.095703125 -35.53125 -12.5283203125 -40.001953125 0.0009765625 -40.001953125 c 2
 500.000976562 -40.001953125 l 2
 512.530273438 -40.001953125 522.09765625 -35.53125 528.703125 -28.703125 c 0
 535.530273438 -22.09765625 540.000976562 -12.5302734375 540.000976562 -0.0009765625 c 2
 545.000976562 232.999023438 l 2
 545.000976562 285.999023438 465.000976562 285.999023438 465.000976562 232.999023438 c 0
 463.620117188 168.666015625 462.239257812 104.333007812 460.858398438 40 c 1
 39.1416015625 40 l 1
 35 233 l 2
 35 286 -45 286 -45 233 c 2
528.701171875 728.700195312 m 0
 522.095703125 735.528320312 512.530273438 739.999023438 500.000976562 739.999023438 c 2
 0.0009765625 739.999023438 l 2
 -12.5283203125 739.999023438 -22.095703125 735.528320312 -28.701171875 728.700195312 c 0
 -35.529296875 722.094726562 -40 712.52734375 -40 699.998046875 c 2
 -45 465.998046875 l 2
 -45 412.998046875 35 412.998046875 35 465.998046875 c 2
 39.1455078125 659.998046875 l 1
 460.854492188 659.998046875 l 1
 465 465.998046875 l 2
 465 412.998046875 545 412.998046875 545 465.998046875 c 2
 540 699.998046875 l 2
 540 712.52734375 535.529296875 722.094726562 528.701171875 728.700195312 c 0
EndSplineSet
EndChar

StartChar: ltr73
Encoding: 73 73 9
Width: 650
GlyphClass: 2
Flags: MW
HStem: -40 80 640 20G
LayerCount: 2
Fore
SplineSet
-40 700 m 2
 -44.9990234375 466.000976562 l 2
 -44.9990234375 413.000976562 35.0009765625 413.000976562 35.0009765625 466.000976562 c 2
 39.146484375 660.000976562 l 1
 333.000976562 660.000976562 l 1
 376.000976562 660.000976562 l 1
 376.000976562 40.0009765625 l 1
 333.000976562 40.0009765625 l 2
 280.000976562 40.0009765625 280.000976562 -39.9990234375 333.000976562 -39.9990234375 c 2
 500.000976562 -39.9990234375 l 2
 553.000976562 -39.9990234375 553.000976562 40.0009765625 500.000976562 40.0009765625 c 2
 456.000976562 40.0009765625 l 1
 456.000976562 660.000976562 l 1
 500.000976562 660.000976562 l 2
 553.000976562 660.000976562 553.000976562 740.000976562 500.000976562 740.000976562 c 2
 333.000976562 740.000976562 l 1
 0.0009765625 740.000976562 l 2
 -12.5283203125 740.000976562 -22.095703125 735.530273438 -28.701171875 728.702148438 c 0
 -35.529296875 722.096679688 -40 712.529296875 -40 700 c 2
EndSplineSet
EndChar

StartChar: ltr74
Encoding: 74 74 10
Width: 650
GlyphClass: 2
Flags: MW
HStem: 657.73 20G 660.045 79.9552
VStem: -50 80<233 259.5 439.501 466.001>
LayerCount: 2
Fore
SplineSet
299.471679688 40 m 1xa0
 442.483398438 709.219726562 l 1
 477.16796875 729.134765625 504.153320312 757.015625 532.000976562 796.001953125 c 0
 563.000976562 839.001953125 497.000976562 886.001953125 466.000976562 842.001953125 c 0
 388.000976562 732.001953125 305.000976562 740.001953125 0.0009765625 740.001953125 c 0
 -12.5283203125 740.001953125 -22.095703125 735.53125 -28.701171875 728.703125 c 0
 -35.529296875 722.09765625 -40 712.530273438 -40 700.000976562 c 2
 -50 466.000976562 l 2
 -50 413.000976562 30 413.000976562 30 466.000976562 c 2
 38.29296875 660.045898438 l 1x60
 186.504882812 660.422851562 283.811523438 663.416992188 353.939453125 677.73046875 c 1
 218 40 l 1
 38 40 l 1
 30 233 l 2
 30 286 -50 286 -50 233 c 2
 -40 0 l 2
 -39 -21 -21 -40 0 -40 c 2
 250 -40 l 1
 333 -40 l 2
 386 -40 386 40 333 40 c 2
 299.471679688 40 l 1xa0
EndSplineSet
EndChar

StartChar: ltr75
Encoding: 75 75 11
Width: 650
GlyphClass: 2
Flags: MW
HStem: 640 20G<38.9746 376 376 376>
VStem: -40 79.1416
LayerCount: 2
Fore
SplineSet
-45 233 m 2
 -40 0.001953125 l 2
 -40 -12.52734375 -35.529296875 -22.0947265625 -28.701171875 -28.7001953125 c 0
 -22.095703125 -35.5283203125 -12.5283203125 -39.9990234375 0.0009765625 -39.9990234375 c 2
 500.000976562 -39.9990234375 l 2
 553.000976562 -39.9990234375 553.000976562 40.0009765625 500.000976562 40.0009765625 c 2
 456.000976562 40.0009765625 l 1
 456.000976562 660.000976562 l 1
 500.000976562 660.000976562 l 2
 553.000976562 660.000976562 553.000976562 740.000976562 500.000976562 740.000976562 c 2
 0.0009765625 740.000976562 l 2
 -12.5283203125 740.000976562 -22.095703125 735.530273438 -28.701171875 728.702148438 c 0
 -35.529296875 722.096679688 -40 712.529296875 -40 700 c 2
 -46 466 l 2
 -46 413 34 413 34 466 c 2
 38.974609375 660 l 1
 376 660 l 1
 376 40 l 1
 39.1416015625 40 l 1
 35 233 l 2
 35 286 -45 286 -45 233 c 2
EndSplineSet
EndChar

StartChar: ltr76
Encoding: 76 76 12
Width: 650
GlyphClass: 2
Flags: MW
HStem: 660 80<333 376 376 376 456 500>
VStem: -40 80<-26.5 62.7793 0 62.7793 0 110.174 0 119.73 146.913 233>
LayerCount: 2
Fore
SplineSet
500 740 m 2
 333 740 l 2
 280 740 280 660 333 660 c 2
 376 660 l 1
 376 53.220703125 l 1
 40 146.913085938 l 1
 40 233 l 2
 40 286 -40 286 -40 233 c 2
 -40 119.73046875 l 2
 -40.3486328125 116.552734375 -40.35546875 113.341796875 -40 110.173828125 c 2
 -40 0 l 2
 -40 -53 40 -53 40 0 c 2
 40 62.779296875 l 1
 405 -39 l 2
 412.173828125 -40.931640625 418.7578125 -41.130859375 424.64453125 -40 c 2
 500 -40 l 2
 553 -40 553 40 500 40 c 2
 456 40 l 1
 456 660 l 1
 500 660 l 2
 553 660 553 740 500 740 c 2
EndSplineSet
EndChar

StartChar: ltr77
Encoding: 77 77 13
Width: 650
GlyphClass: 2
Flags: MW
HStem: 628.966 20G
VStem: 50.9311 81.2914 470 80
LayerCount: 2
Fore
SplineSet
132.22265625 40 m 1
 183.595703125 330.15625 65.29296875 538.250976562 462.1796875 648.96484375 c 1
 469.999023438 465.999023438 l 2
 469.999023438 412.999023438 549.999023438 412.999023438 549.999023438 465.999023438 c 2
 540.11328125 697.333984375 l 2
 540.205078125 699.72265625 540.09765625 702.123046875 539.798828125 704.501953125 c 0
 538.822265625 715.255859375 534.34765625 723.548828125 527.9765625 729.380859375 c 0
 519.463867188 737.979492188 506.80078125 742.64453125 490.998046875 738.998046875 c 0
 -17.2841796875 619.458984375 124.256835938 393.190429688 50.9296875 39.998046875 c 1
 -0.0009765625 39.998046875 l 2
 -53.0009765625 39.998046875 -53.0009765625 -40.001953125 -0.0009765625 -40.001953125 c 2
 499.999023438 -40.001953125 l 2
 512.528320312 -40.001953125 522.095703125 -35.53125 528.701171875 -28.703125 c 0
 535.528320312 -22.09765625 539.999023438 -12.5302734375 539.999023438 -0.0009765625 c 2
 549.999023438 232.999023438 l 2
 549.999023438 285.999023438 469.999023438 285.999023438 469.999023438 232.999023438 c 0
 467.23828125 168.666015625 464.477539062 104.333007812 461.716796875 40 c 1
 132.22265625 40 l 1
EndSplineSet
EndChar

StartChar: ltr78
Encoding: 78 78 14
Width: 650
GlyphClass: 2
Flags: MW
HStem: -40 80<306.5 333> 660 80
VStem: -40 80
LayerCount: 2
Fore
SplineSet
333 -40 m 2
 499.998046875 -40.001953125 l 2
 552.998046875 -40.001953125 552.998046875 39.998046875 499.998046875 39.998046875 c 2
 455.998046875 39.998046875 l 1
 455.998046875 659.998046875 l 1
 499.998046875 659.998046875 l 2
 552.998046875 659.998046875 552.998046875 739.998046875 499.998046875 739.998046875 c 2
 332.998046875 739.998046875 l 2
 279.998046875 739.998046875 279.998046875 659.998046875 332.998046875 659.998046875 c 2
 359.145507812 659.998046875 l 1
 140.680664062 45.8388671875 l 1
 80.7509765625 73.1845703125 39.998046875 193.791015625 39.998046875 348.999023438 c 0
 39.998046875 525.999023438 92.998046875 659.999023438 166.998046875 659.999023438 c 0
 193.498046875 659.999023438 206.748046875 679.999023438 206.748046875 699.999023438 c 0
 206.748046875 719.999023438 193.498046875 739.999023438 166.998046875 739.999023438 c 2
 -0.001953125 739.999023438 l 2
 -53.001953125 739.999023438 -53.001953125 659.999023438 -0.001953125 659.999023438 c 2
 33.0361328125 659.999023438 l 1
 -9.478515625 598.888671875 -40.0009765625 499.19921875 -40.0009765625 348.999023438 c 0
 -40.0009765625 65.4404296875 68.783203125 -36.16796875 161.668945312 -39.8935546875 c 0
 173.89453125 -41.716796875 186.818359375 -38.4052734375 196.025390625 -28.3623046875 c 0
 198.849609375 -25.365234375 201.116210938 -21.9306640625 202.825195312 -18.2314453125 c 0
 203.62109375 -16.587890625 204.348632812 -14.8447265625 205 -13 c 2
 376 468 l 1
 376 40 l 1
 333 40 l 2
 280 40 280 -40 333 -40 c 2
EndSplineSet
EndChar

StartChar: ltr79
Encoding: 79 79 15
Width: 650
GlyphClass: 2
Flags: MW
HStem: -40 80<0 45.3525 -26.5 79.2832 -26.5 88.3604 125.725 373.411 453.653 500> 660 80<223 277>
VStem: 80 80<585 625 581 661.5> 340 80<582 663 582 663>
LayerCount: 2
Fore
SplineSet
125.724609375 40 m 1
 160 581 l 1
 160 584 l 2
 160 666 196 660 250 660 c 0
 304 660 340 667 340 584 c 2
 340 582 l 1
 373.411132812 40 l 1
 125.724609375 40 l 1
453.653320312 40 m 1
 420 585 l 1
 420 741 362 740 250 740 c 0
 138 740 80 738 80 585 c 1
 45.3525390625 40 l 1
 0 40 l 2
 -53 40 -53 -40 0 -40 c 2
 79.283203125 -40 l 2
 82.3037109375 -40.3076171875 85.3525390625 -40 88.3603515625 -40 c 2
 411.5546875 -40 l 2
 414.33203125 -40.26171875 417.137695312 -40 419.91796875 -40 c 2
 500 -40 l 2
 553 -40 553 40 500 40 c 2
 453.653320312 40 l 1
EndSplineSet
EndChar

StartChar: ltr80
Encoding: 80 80 16
Width: 650
GlyphClass: 2
Flags: MW
HStem: -40 80 626.71 20G 660 80
VStem: -40 80
LayerCount: 2
Fore
SplineSet
167 740 m 0
 73 740 -39.9990234375 637.998046875 -39.9990234375 348.998046875 c 0
 -39.9990234375 59.998046875 73.0009765625 -40.001953125 167.000976562 -40.001953125 c 2
 500.000976562 -40.001953125 l 2
 553.000976562 -40.001953125 553.000976562 39.998046875 500.000976562 39.998046875 c 2
 456.000976562 39.998046875 l 1
 456.000976562 659.998046875 l 1
 500.000976562 659.998046875 l 2
 553.000976562 659.998046875 553.000976562 739.998046875 500.000976562 739.998046875 c 2
 333.000976562 739.998046875 l 2
 280.000976562 739.998046875 280.000976562 659.998046875 333.000976562 659.998046875 c 2
 376.000976562 659.998046875 l 1
 376.000976562 39.998046875 l 1
 167.000976562 39.998046875 l 2
 93.0009765625 39.998046875 40.0009765625 171.998046875 40.0009765625 348.998046875 c 0
 40.0009765625 493.1171875 75.138671875 608.728515625 128.139648438 646.708984375 c 1
 132.000976562 465.999023438 l 2
 132.000976562 412.999023438 212.000976562 412.999023438 212.000976562 465.999023438 c 2
 207.000976562 699.999023438 l 2
 207.000976562 712.528320312 202.530273438 722.095703125 195.702148438 728.701171875 c 0
 189.096679688 735.529296875 179.529296875 740 167 740 c 0
EndSplineSet
EndChar

StartChar: ltr81
Encoding: 81 81 17
Width: 650
GlyphClass: 2
Flags: MW
HStem: 660 80<-0 27.5869 27.5869 27.5869 111.777 375.999 375.999 375.999 455.999 499.999>
VStem: 27.5871 84.1907
LayerCount: 2
Fore
SplineSet
43.912109375 -10.9609375 m 0
 44.875 -14.7607421875 46.427734375 -18.427734375 48.6162109375 -21.8134765625 c 0
 55.7861328125 -34.1171875 67.3154296875 -39.8837890625 79.2119140625 -40.505859375 c 0
 232.150390625 -85.3291015625 237.766601562 17.201171875 395 -85 c 0
 440 -114 484 -46 439 -17 c 0
 274.706054688 88.6865234375 268.262695312 -8.7099609375 114.576171875 32.267578125 c 1
 43.1748046875 241.217773438 43.0537109375 450.19140625 111.77734375 660 c 1
 375.999023438 660 l 1
 375.999023438 349 l 2
 375.999023438 296 455.999023438 296 455.999023438 349 c 2
 455.999023438 660 l 1
 499.999023438 660 l 2
 552.999023438 660 552.999023438 740 499.999023438 740 c 2
 87.5654296875 740 l 2
 83.8662109375 740.485351562 80.111328125 740.5 76.4228515625 740 c 2
 0 740 l 2
 -53 740 -53 660 -0 660 c 2
 27.5869140625 660 l 1
 -40.3720703125 435.818359375 -35.716796875 212.426757812 43.912109375 -10.9609375 c 0
EndSplineSet
EndChar

StartChar: ltr82
Encoding: 82 82 18
Width: 650
GlyphClass: 2
Flags: MW
HStem: -40 80<83.001 138.605 56.501 162.435 56.501 173.577 223.853 250> 640 20G<40.001 359.148 359.148 359.148>
LayerCount: 2
Fore
SplineSet
223.852539062 40 m 1
 444.396484375 660.000976562 l 1
 500.000976562 660.000976562 l 2
 553.000976562 660.000976562 553.000976562 740.000976562 500.000976562 740.000976562 c 2
 420.567382812 740.000976562 l 2
 416.868164062 740.486328125 413.11328125 740.500976562 409.424804688 740.000976562 c 2
 0.001953125 740.000976562 l 2
 -12.52734375 740.000976562 -22.0947265625 735.530273438 -28.7001953125 728.702148438 c 0
 -35.5283203125 722.096679688 -39.9990234375 712.529296875 -39.9990234375 700 c 2
 -39.9990234375 466 l 2
 -39.9990234375 413 40.0009765625 413 40.0009765625 466 c 2
 40.0009765625 660 l 1
 359.1484375 660 l 1
 138.60546875 40 l 1
 83.0009765625 40 l 2
 30.0009765625 40 30.0009765625 -40 83.0009765625 -40 c 2
 162.434570312 -40 l 2
 166.133789062 -40.4853515625 169.888671875 -40.5 173.577148438 -40 c 2
 250 -40 l 2
 303 -40 303 40 250 40 c 2
 223.852539062 40 l 1
EndSplineSet
EndChar

StartChar: ltr83
Encoding: 83 83 19
Width: 650
GlyphClass: 2
Flags: MW
HStem: -40 80<333 376 455.999 499.999> 142 76 312.896 81.0134 660 80<-0.000976562 47.7646 47.7646 47.7646 128.701 166.999 332.999 375.999 375.999 375.999 455.999 499.999>
VStem: 47.7654 80.9366
LayerCount: 2
Fore
SplineSet
50 278 m 0
 95 211 156 165 239 142 c 0
 290 127 312 204 261 218 c 0
 198 237 151 271 116 322 c 0
 86 367 20 322 50 278 c 0
333 -40 m 2
 499.999023438 -40 l 2
 552.999023438 -40 552.999023438 40 499.999023438 40 c 2
 455.999023438 40 l 1
 455.999023438 660 l 1
 499.999023438 660 l 2
 552.999023438 660 552.999023438 740 499.999023438 740 c 2
 332.999023438 740 l 2
 279.999023438 740 279.999023438 660 332.999023438 660 c 2
 375.999023438 660 l 1
 375.999023438 393.909179688 l 1
 260.578125 421.73828125 154.076171875 561.893554688 128.701171875 660 c 1
 166.999023438 660 l 2
 219.999023438 660 219.999023438 740 166.999023438 740 c 2
 -0.0009765625 740 l 2
 -53.0009765625 740 -53.0009765625 660 -0.0009765625 660 c 2
 47.7646484375 660 l 1
 75.6826171875 532.861328125 222.08984375 342.39453125 376 312.896484375 c 1
 376 40 l 1
 333 40 l 2
 280 40 280 -40 333 -40 c 2
EndSplineSet
EndChar

StartChar: ltr84
Encoding: 84 84 20
Width: 650
GlyphClass: 2
Flags: MW
HStem: 660 80<167 210 210 210 290 333>
VStem: -40 80<89.5 141.556 116 141.556 116 226.761 249.885 349.001> 460 80<89.5 226.761 116 141.556 249.885 249.885 249.885 349.001>
LayerCount: 2
Fore
SplineSet
460 141.555664062 m 1
 460 116 l 2
 460 63 540 63 540 116 c 2
 540 226.760742188 l 2
 540.693359375 230.834960938 540.65625 234.907226562 540 238.856445312 c 2
 540 349.000976562 l 2
 540 402.000976562 460 402.000976562 460 349.000976562 c 2
 460 249.884765625 l 1
 290 91.4443359375 l 1
 290 660 l 1
 333 660 l 2
 386 660 386 740 333 740 c 2
 167 740 l 2
 114 740 114 660 167 660 c 2
 210 660 l 1
 210 91.4443359375 l 1
 40 249.884765625 l 1
 40 349.000976562 l 2
 40 402.000976562 -40 402.000976562 -40 349.000976562 c 2
 -40 238.856445312 l 2
 -40.65625 234.907226562 -40.693359375 230.834960938 -40 226.760742188 c 2
 -40 116 l 2
 -40 63 40 63 40 116 c 2
 40 141.555664062 l 1
 216.456054688 -22.9013671875 l 2
 219.872070312 -28.015625 224.431640625 -31.9658203125 229.614257812 -34.751953125 c 0
 235.688476562 -38.5615234375 242.697265625 -40.796875 250 -40.7509765625 c 0
 257.302734375 -40.796875 264.311523438 -38.5615234375 270.385742188 -34.751953125 c 0
 275.568359375 -31.9658203125 280.127929688 -28.015625 283.543945312 -22.9013671875 c 2
 460 141.555664062 l 1
EndSplineSet
EndChar

StartChar: ltr85
Encoding: 85 85 21
Width: 650
GlyphClass: 2
Flags: MW
HStem: -40 80<456 456 456 500 456 526.5> 554.096 20G 660 80<0 43 43 43 123 167 455.999 499.999>
VStem: 43 80<51 660 116 660>
LayerCount: 2
Fore
SplineSet
456 40 m 1
 455.999023438 660 l 1
 499.999023438 660 l 2
 552.999023438 660 552.999023438 740 499.999023438 740 c 2
 421.646484375 740 l 2
 412.354492188 741.708984375 402.48828125 740.125976562 393.771484375 733.982421875 c 0
 391.366210938 732.453125 389.208007812 730.67578125 387.297851562 728.701171875 c 0
 384.514648438 726.008789062 382.123046875 722.82421875 380.266601562 719.147460938 c 2
 217 489 l 2
 187 446 252 399 283 443 c 2
 376 574.096679688 l 1
 376 39.5478515625 l 1
 232.239257812 36.556640625 123 22.4990234375 123 116 c 2
 123 660 l 1
 167 660 l 2
 220 660 220 740 167 740 c 2
 0 740 l 2
 -53 740 -53 660 0 660 c 2
 43 660 l 1
 43 116 l 2
 43 -14 81 -40 416 -40 c 2
 500 -40 l 2
 553 -40 553 40 500 40 c 2
 456 40 l 1
EndSplineSet
EndChar

StartChar: ltr86
Encoding: 86 86 22
Width: 650
GlyphClass: 2
Flags: MW
HStem: -40 80<167 210 289.998 332.998> 660 80<0 57.9434 57.9434 57.9434 146.119 166.999 332.999 353.042 353.042 353.042 441.12 499.998>
LayerCount: 2
Fore
SplineSet
167 -40 m 2
 332.998046875 -40 l 2
 385.998046875 -40 385.998046875 40 332.998046875 40 c 2
 289.998046875 40 l 1
 289.998046875 340.458007812 l 1
 441.120117188 660 l 1
 499.998046875 660 l 2
 552.998046875 660 552.998046875 740 499.998046875 740 c 2
 418.872070312 740 l 2
 416.244140625 740.256835938 413.594726562 740.263671875 410.965820312 740 c 2
 332.999023438 740 l 2
 279.999023438 740 279.999023438 660 332.999023438 660 c 2
 353.041992188 660 l 1
 249.891601562 441.891601562 l 1
 146.119140625 660 l 1
 166.999023438 660 l 2
 219.999023438 660 219.999023438 740 166.999023438 740 c 2
 88.0322265625 740 l 2
 85.4033203125 740.263671875 82.75390625 740.256835938 80.1259765625 740 c 2
 0 740 l 2
 -53 740 -53 660 0 660 c 2
 57.943359375 660 l 1
 210 340.407226562 l 1
 210 40 l 1
 167 40 l 2
 114 40 114 -40 167 -40 c 2
EndSplineSet
EndChar

StartChar: ltr87
Encoding: 87 87 23
Width: 650
GlyphClass: 2
Flags: MW
HStem: -40 80<0 43 123 376 456 500> 660 80<0 43 43 43 123 376 376 376 456 500>
LayerCount: 2
Fore
SplineSet
0 -40 m 2
 500 -40 l 2
 553 -40 553 40 500 40 c 2
 456 40 l 1
 456 660 l 1
 500 660 l 2
 553 660 553 740 500 740 c 2
 0 740 l 2
 -53 740 -53 660 0 660 c 2
 43 660 l 1
 43 40 l 1
 0 40 l 2
 -53 40 -53 -40 0 -40 c 2
376 40 m 1
 123 40 l 1
 123 660 l 1
 376 660 l 1
 376 40 l 1
EndSplineSet
EndChar

StartChar: ltr88
Encoding: 88 88 24
Width: 650
GlyphClass: 2
Flags: MW
HStem: -40 80<0 51.3955 -26.5 80.4297> 507.036 20G
LayerCount: 2
Fore
SplineSet
418.5703125 -40 m 2
 500 -39.9990234375 l 2
 553 -39.9990234375 553 40.0009765625 500 40.0009765625 c 2
 447.6484375 40.0009765625 l 1
 300.620117188 660.000976562 l 1
 333 660.000976562 l 2
 386 660.000976562 386 740.000976562 333 740.000976562 c 2
 254.541992188 740.000976562 l 2
 253.033203125 740.125976562 251.516601562 740.169921875 250 740.134765625 c 0
 238.62890625 740.395507812 227.2421875 736.216796875 219.4453125 726.765625 c 0
 214.017578125 720.89453125 210.391601562 713.236328125 209.826171875 704.081054688 c 2
 51.3955078125 40 l 1
 0 40 l 2
 -53 40 -53 -40 -0 -40 c 2
 80.4296875 -40 l 2
 82.798828125 -40.193359375 85.1806640625 -40 87.5419921875 -40 c 2
 411.458007812 -40 l 2
 413.819335938 -40.1962890625 416.201171875 -40 418.5703125 -40 c 2
365.379882812 40.0009765625 m 1
 133.689453125 40.0009765625 l 1
 249.8828125 527.037109375 l 1
 365.379882812 40.0009765625 l 1
EndSplineSet
EndChar

StartChar: ltr89
Encoding: 89 89 25
Width: 650
GlyphClass: 2
Flags: MW
HStem: 660 80<-0.00195312 51.3936 51.3936 51.3936 133.688 145.956 145.956 145.956 332.999 365.379 365.379 365.379 447.647 499.999>
LayerCount: 2
Fore
SplineSet
290.17578125 -4.0419921875 m 2
 447.647460938 660 l 1
 499.999023438 660 l 2
 552.999023438 660 552.999023438 740 499.999023438 740 c 2
 418.569335938 740 l 2
 416.200195312 740.193359375 413.818359375 740 411.45703125 740 c 2
 332.999023438 740 l 2
 279.999023438 740 279.999023438 660 332.999023438 660 c 2
 365.37890625 660 l 1
 249.881835938 172.963867188 l 1
 133.688476562 660 l 1
 145.956054688 660 l 1
 216.998046875 559 l 2
 247.998046875 515 312.998046875 561 282.998046875 605 c 2
 201.438476562 720.951171875 l 2
 198.622070312 725.991210938 194.684570312 730.412109375 189.626953125 733.723632812 c 0
 180.434570312 740.421875 169.923828125 742.02734375 160.140625 740 c 2
 87.5400390625 740 l 2
 85.1787109375 740.1953125 82.796875 740 80.427734375 740 c 2
 -0.001953125 740 l 2
 -53.001953125 740 -53.001953125 660 -0.001953125 660 c 2
 51.3935546875 660 l 1
 209.82421875 -4.0810546875 l 2
 210.389648438 -13.236328125 214.015625 -20.89453125 219.443359375 -26.765625 c 0
 227.240234375 -36.216796875 238.626953125 -40.3955078125 249.999023438 -40.134765625 c 0
 261.370117188 -40.3955078125 272.756835938 -36.216796875 280.553710938 -26.765625 c 0
 285.989257812 -20.88671875 289.618164062 -13.21484375 290.17578125 -4.0419921875 c 2
EndSplineSet
EndChar

StartChar: ltr90
Encoding: 90 90 26
Width: 650
GlyphClass: 2
Flags: MW
HStem: 542.01 79.9465 660 80
VStem: -50 80<233 259.5> -40 78.2833 17 78
LayerCount: 2
Fore
SplineSet
-50 233 m 2xe0
 -40.0009765625 0.001953125 l 2xd0
 -40.0009765625 -12.52734375 -35.5302734375 -22.0947265625 -28.7021484375 -28.7001953125 c 0
 -22.0966796875 -35.5283203125 -12.529296875 -39.9990234375 0 -39.9990234375 c 2
 416 -39.9990234375 l 1
 500 -39.9990234375 l 2
 553 -39.9990234375 553 40.0009765625 500 40.0009765625 c 2
 456 40.0009765625 l 1
 456 660.000976562 l 1
 500 660.000976562 l 2
 553 660.000976562 553 740.000976562 500 740.000976562 c 2
 333 740.000976562 l 2
 280 740.000976562 280 660.000976562 333 660.000976562 c 2
 376 660.000976562 l 1
 376 621.95703125 l 1
 82.20703125 621.145507812 83.126953125 606.255859375 17 359 c 0
 4 308 81 287 95 339 c 0xc8
 147.048828125 535.837890625 153.423828125 541.923828125 376 542.009765625 c 1
 376 40 l 1
 38.283203125 40 l 1
 30 233 l 2
 30 286 -50 286 -50 233 c 2xe0
EndSplineSet
EndChar

StartChar: ltr97
Encoding: 97 97 27
Width: 650
GlyphClass: 2
Flags: MW
HStem: -40 80<0.000976562 43.001 123.001 167.001 416.001 429.438> 128 80<123.001 201.037> 260 80<123 200.822 123 221.501> 426 80<0 43.001 43.001 43.001 416 428.874 428.874 428.874>
LayerCount: 2
Fore
SplineSet
0 426 m 2
 43.0009765625 426 l 1
 43.0009765625 300 l 2
 43.0009765625 278 61.0009765625 260 83.0009765625 260 c 0
 360.000976562 260 445.000976562 268 536.000976562 448 c 0
 544.913085938 465.82421875 540.586914062 481.994140625 530.396484375 492.822265625 c 0
 525.932617188 498.1328125 519.872070312 502.2734375 512.213867188 504.407226562 c 0
 505.551757812 506.6484375 498.383789062 507.307617188 491.481445312 506 c 2
 416 506 l 2
 363 506 363 426 416 426 c 2
 428.874023438 426 l 1
 360.504882812 334.212890625 278.64453125 340 123 340 c 1
 123 466 l 2
 123 488 105 506 83 506 c 2
 0 506 l 2
 -53 506 -53 426 0 426 c 2
0.0009765625 -40 m 2
 167.000976562 -40 l 2
 220.000976562 -40 220.000976562 40 167.000976562 40 c 2
 123.000976562 40 l 1
 123.000976562 128 l 1
 279.073242188 128 360.955078125 133.819335938 429.438476562 40 c 1
 416.000976562 40 l 2
 363.000976562 40 363.000976562 -40 416.000976562 -40 c 2
 491.482421875 -40 l 2
 498.384765625 -41.3076171875 505.552734375 -40.6484375 512.21484375 -38.4072265625 c 0
 519.873046875 -36.2734375 525.93359375 -32.1328125 530.396484375 -26.822265625 c 0
 540.586914062 -15.994140625 544.913085938 0.17578125 536.000976562 18 c 0
 445.000976562 200 360.000976562 208 83.0009765625 208 c 0
 61.0009765625 208 43.0009765625 190 43.0009765625 168 c 2
 43.0009765625 40 l 1
 0.0009765625 40 l 2
 -52.9990234375 40 -52.9990234375 -40 0.0009765625 -40 c 2
EndSplineSet
EndChar

StartChar: ltr98
Encoding: 98 98 28
Width: 650
GlyphClass: 2
Flags: MW
HStem: -50 80<214 286 214 297> 190 80<167 333> 429 80<215.139 286>
LayerCount: 2
Fore
SplineSet
167 190 m 2
 333 190 l 2
 386 190 386 270 333 270 c 2
 167 270 l 2
 114 270 114 190 167 190 c 2
-33 86 m 0
 61 -48 156 -50 250 -50 c 0
 344 -50 438 -49 533 86 c 0
 563 130 498 176 467 132 c 0
 394 29 322 30 250 30 c 0
 178 30 105 28 33 132 c 0
 2 176 -63 130 -33 86 c 0
26.654296875 318.462890625 m 0
 30.359375 321.5390625 33.5048828125 325.38671875 35.8095703125 330.00390625 c 0
 106.8984375 429.974609375 178.936523438 429 250 429 c 0
 322 429 394 430 467 326 c 0
 498 282 563 328 533 372 c 0
 438 508 344 509 250 509 c 0
 180.278320312 509 110.005859375 508.450195312 40 452.669921875 c 1
 40 469 l 2
 40 522 -40 522 -40 469 c 2
 -40 355.627929688 l 2
 -41.42578125 348.059570312 -40.3955078125 340.784179688 -37.625 334.299804688 c 0
 -33.7666015625 323.326171875 -25.5888671875 315.958007812 -15.9296875 312.1953125 c 0
 -2.470703125 305.854492188 13.9736328125 306.375976562 26.654296875 318.462890625 c 0
EndSplineSet
EndChar

StartChar: ltr99
Encoding: 99 99 29
Width: 650
GlyphClass: 2
Flags: MW
HStem: -190 80
VStem: 210 80<89.5 349 116 349> 376 80
LayerCount: 2
Fore
SplineSet
46 -75 m 0
 74 -138 147.000976562 -189.999023438 250.000976562 -189.999023438 c 0
 355.000976562 -189.999023438 456.000976562 -124.999023438 456.000976562 0.0009765625 c 2
 456.000976562 116.000976562 l 1
 456.000976562 309.000976562 l 1
 500.000976562 309.000976562 l 2
 553.000976562 309.000976562 553.000976562 389.000976562 500.000976562 389.000976562 c 2
 416.000976562 389.000976562 l 2
 403.471679688 389.000976562 393.904296875 384.530273438 387.298828125 377.702148438 c 0
 380.470703125 371.096679688 376 361.529296875 376 349 c 2
 376 116 l 1
 376 0 l 2
 376 -77 311 -110 250 -110 c 0
 187 -110 136 -82 118 -43 c 0
 97 6 24 -27 46 -75 c 0
0.0009765625 76.0009765625 m 2
 83 76 l 2
 95.529296875 76 105.096679688 80.470703125 111.702148438 87.298828125 c 0
 118.530273438 93.904296875 123.000976562 103.471679688 123.000976562 116.000976562 c 2
 123.000976562 466.000976562 l 2
 123.000976562 488.000976562 105.000976562 506.000976562 83.0009765625 506.000976562 c 2
 0.0009765625 506.000976562 l 2
 -52.9990234375 506.000976562 -52.9990234375 426.000976562 0.0009765625 426.000976562 c 2
 43.0009765625 426.000976562 l 1
 43.0009765625 156.000976562 l 1
 0.0009765625 156.000976562 l 2
 -52.9990234375 156.000976562 -52.9990234375 76.0009765625 0.0009765625 76.0009765625 c 2
210 349 m 2
 210 116 l 2
 210 63 290 63 290 116 c 2
 290 349 l 2
 290 402 210 402 210 349 c 2
EndSplineSet
EndChar

StartChar: ltr100
Encoding: 100 100 30
Width: 650
GlyphClass: 2
Flags: MW
HStem: 193 80 425.433 80.5675
VStem: -40 80<349.002 393.502 311.002 421.502>
LayerCount: 2
Fore
SplineSet
413.98828125 506 m 1
 167 506.001953125 l 2
 54 506.001953125 -40 494.001953125 -40 349.001953125 c 0
 -39 192.001953125 83 193.001953125 83 193.001953125 c 1
 137 193.001953125 136 273.001953125 83 273.001953125 c 1
 83 273.001953125 40 273.001953125 40 349.001953125 c 0
 40 438.001953125 112 426.001953125 167 426.001953125 c 2
 356.538085938 425.434570312 l 1
 295.184570312 273.65234375 l 1
 249 273.001953125 l 2
 196 272.001953125 197 192.001953125 251 193.001953125 c 2
 262.650390625 193.166015625 l 1
 131.939453125 -130.200195312 l 2
 130.661132812 -132.676757812 129.64453125 -135.2890625 128.888671875 -137.981445312 c 0
 124.36328125 -151.432617188 126.922851562 -163.30859375 133.3515625 -172.3046875 c 0
 139.666015625 -182.6015625 150.881835938 -190 166.999023438 -190 c 2
 167.821289062 -190 l 2
 168.217773438 -190.005859375 168.614257812 -190 169.010742188 -190 c 2
 249.999023438 -190 l 2
 302.999023438 -190 302.999023438 -110 249.999023438 -110 c 2
 226.231445312 -110 l 1
 442.560546875 425.174804688 l 1
 501 425 l 2
 555 426 554 507 500 506 c 2
 415.177734375 506 l 1
 413.98828125 506 l 1
EndSplineSet
EndChar

StartChar: ltr101
Encoding: 101 101 31
Width: 650
GlyphClass: 2
Flags: MW
HStem: 426 80
LayerCount: 2
Fore
SplineSet
416 -40 m 2
 499.998046875 -39.9990234375 l 2
 552.998046875 -39.9990234375 552.998046875 40.0009765625 499.998046875 40.0009765625 c 2
 455.998046875 40.0009765625 l 1
 455.998046875 426.000976562 l 1
 499.998046875 426.000976562 l 2
 552.998046875 426.000976562 552.998046875 506.000976562 499.998046875 506.000976562 c 2
 332.998046875 506.000976562 l 2
 314.998046875 506.000976562 299.998046875 494.000976562 294.998046875 477.000976562 c 2
 201.998046875 154.000976562 l 1
 121.998046875 476.000976562 l 2
 116.724609375 496.69140625 100.752929688 505.860351562 84.4990234375 505.979492188 c 0
 84.00390625 505.994140625 83.50390625 506.000976562 82.9990234375 506.000976562 c 2
 -0.0009765625 506.000976562 l 2
 -53.0009765625 506.000976562 -53.0009765625 426.000976562 -0.0009765625 426.000976562 c 2
 51.53125 426.000976562 l 1
 160.999023438 -9.9990234375 l 2
 169.999023438 -44.9990234375 227.999023438 -45.9990234375 237.999023438 -10.9990234375 c 2
 362.999023438 426.000976562 l 1
 375.999023438 426.000976562 l 1
 375.999023438 0.0009765625 l 2
 375.999023438 -12.5283203125 380.469726562 -22.095703125 387.297851562 -28.701171875 c 0
 393.903320312 -35.529296875 403.470703125 -40 416 -40 c 2
EndSplineSet
EndChar

StartChar: ltr102
Encoding: 102 102 32
Width: 650
GlyphClass: 2
Flags: MW
HStem: 311.923 77.9455
LayerCount: 2
Fore
SplineSet
0 -40 m 2
 499.999023438 -40.0009765625 l 2
 512.528320312 -40.0009765625 522.095703125 -35.5302734375 528.701171875 -28.7021484375 c 0
 535.528320312 -22.0966796875 539.999023438 -12.529296875 539.999023438 0 c 2
 539.999023438 116 l 2
 539.999023438 169 459.999023438 169 459.999023438 116 c 2
 459.999023438 40 l 1
 289.999023438 40 l 1
 289.999023438 317.254882812 l 1
 419.599609375 330.16796875 474.330078125 362.651367188 531.999023438 443 c 0
 563.999023438 486 498.999023438 533 467.999023438 489 c 0
 423.3046875 427.8984375 377.009765625 403.92578125 290 394.627929688 c 1
 290 700 l 2
 290 722 272 740 250 740 c 2
 167 740 l 2
 114 740 114 660 167 660 c 2
 210 660 l 1
 210 389.868164062 l 1
 154.322265625 388.365234375 85.9326171875 389 0 389 c 0
 -53 389 -53 309 -0 309 c 0
 14.794921875 309 29.1220703125 309.016601562 43 309.057617188 c 1
 43 40 l 1
 0 40 l 2
 -53 40 -53 -40 0 -40 c 2
122.999023438 309.672851562 m 1
 154.673828125 310.115234375 183.556640625 310.823242188 209.999023438 311.921875 c 1
 209.999023438 39.9990234375 l 1
 122.999023438 39.9990234375 l 1
 122.999023438 309.672851562 l 1
EndSplineSet
EndChar

StartChar: ltr103
Encoding: 103 103 33
Width: 650
GlyphClass: 2
Flags: MW
HStem: -40 79<1 1 1 250>
VStem: 460 80<184 233 165 426>
LayerCount: 2
Fore
SplineSet
0 -40 m 2
 250 -40 l 2
 444 -40 540 97 540 233 c 2
 541 465 l 2
 541 487 523 505 501 505 c 2
 250 506 l 2
 228 506 210 488 210 466 c 2
 210 233 l 2
 210 180 290 180 290 233 c 2
 290 426 l 1
 460 426 l 1
 460 233 l 2
 460 135 388 40 250 40 c 2
 123 39.490234375 l 1
 123 466 l 2
 123 488 105 506 83 506 c 2
 0 506 l 2
 -53 506 -53 426 0 426 c 2
 43 426 l 1
 43 39.1689453125 l 1
 1 39 l 2
 -52 40 -53 -39 0 -40 c 2
EndSplineSet
EndChar

StartChar: ltr104
Encoding: 104 104 34
Width: 650
GlyphClass: 2
Flags: MW
HStem: 193 80
VStem: -40 80<115.999 142.499 349 426> 460 80<39.999 115.999 39.999 39.999 349 426>
LayerCount: 2
Fore
SplineSet
540 349 m 2
 540 465.999023438 l 2
 540 478.528320312 535.529296875 488.095703125 528.702148438 494.701171875 c 0
 522.096679688 501.529296875 512.529296875 506 500 506 c 2
 0 506 l 2
 -22 506 -40 488 -40 466 c 2
 -40 349 l 2
 -40 296 40 296 40 349 c 2
 40 426 l 1
 460 426 l 1
 460 349 l 2
 460 296 540 296 540 349 c 2
167 192.999023438 m 2
 333 192.999023438 l 2
 386 192.999023438 386 272.999023438 333 272.999023438 c 2
 167 272.999023438 l 2
 114 272.999023438 114 192.999023438 167 192.999023438 c 2
-40 115.999023438 m 2
 -40.0009765625 -0.001953125 l 2
 -40.0009765625 -22.001953125 -22.0009765625 -40.001953125 -0.0009765625 -40.001953125 c 2
 499.999023438 -40.001953125 l 2
 512.528320312 -40.001953125 522.095703125 -35.53125 528.701171875 -28.703125 c 0
 535.529296875 -22.09765625 540 -12.5302734375 540 -0.0009765625 c 2
 540 115.999023438 l 2
 540 168.999023438 460 168.999023438 460 115.999023438 c 2
 460 39.9990234375 l 1
 40 39.9990234375 l 1
 40 115.999023438 l 2
 40 168.999023438 -40 168.999023438 -40 115.999023438 c 2
EndSplineSet
EndChar

StartChar: ltr105
Encoding: 105 105 35
Width: 650
GlyphClass: 2
Flags: MW
HStem: -40 80<333 376 456 500>
LayerCount: 2
Fore
SplineSet
405 505 m 2
 -11 388 l 2
 -28 383 -40 367 -40 349 c 2
 -40 233 l 2
 -40 180 40 180 40 233 c 2
 40 319 l 1
 376 412.767578125 l 1
 376 40 l 1
 333 40 l 2
 280 40 280 -40 333 -40 c 2
 500 -40 l 2
 553 -40 553 40 500 40 c 2
 456 40 l 1
 456 426 l 1
 500 426 l 2
 553 426 553 506 500 506 c 2
 424.64453125 506 l 2
 418.7578125 507.130859375 412.173828125 506.931640625 405 505 c 2
EndSplineSet
EndChar

StartChar: ltr106
Encoding: 106 106 36
Width: 650
GlyphClass: 2
Flags: MW
HStem: -190 80 426.041 79.9593
VStem: -40 80
LayerCount: 2
Fore
SplineSet
-40 466 m 2
 -39.998046875 349.000976562 l 2
 -39.998046875 296.000976562 40.001953125 296.000976562 40.001953125 349.000976562 c 2
 40.001953125 426.041992188 l 1
 185.408203125 426.369140625 281.830078125 428.916015625 351.600585938 442.193359375 c 1
 294.74609375 12.623046875 l 2
 294.478515625 11.7705078125 294.23046875 10.896484375 294.001953125 10.0009765625 c 0
 274.001953125 -71.9990234375 233.001953125 -109.999023438 167.001953125 -109.999023438 c 0
 106.001953125 -109.999023438 39.001953125 -57.9990234375 40.001953125 -0.9990234375 c 0
 41.001953125 53.0009765625 -38.998046875 54.0009765625 -39.998046875 1.0009765625 c 0
 -40.998046875 -93.9990234375 60.001953125 -189.999023438 167.001953125 -189.999023438 c 0
 267.001953125 -189.999023438 338.001953125 -141.999023438 372.001953125 -9.9990234375 c 0
 373.203125 -5.1923828125 373.626953125 -0.66796875 373.396484375 3.5458984375 c 2
 435.000976562 469.000976562 l 2
 435.0078125 469.036132812 435.014648438 469.071289062 435.021484375 469.106445312 c 0
 473.584960938 488.805664062 502.40625 517.434570312 532.000976562 559.000976562 c 0
 564.000976562 602.000976562 499.000976562 649.000976562 468.000976562 605.000976562 c 0
 389.000976562 496.000976562 305.000976562 506.000976562 0.0009765625 506.000976562 c 0
 -12.5283203125 506.000976562 -22.095703125 501.530273438 -28.701171875 494.702148438 c 0
 -35.529296875 488.096679688 -40 478.529296875 -40 466 c 2
EndSplineSet
EndChar

StartChar: ltr107
Encoding: 107 107 37
Width: 650
GlyphClass: 2
Flags: MW
HStem: -50 80<214 319 214 347> 429 80<215.139 319>
VStem: 460 80<179 280>
LayerCount: 2
Fore
SplineSet
40 452.669921875 m 1
 40.0009765625 469.000976562 l 2
 40.0009765625 522.000976562 -39.9990234375 522.000976562 -39.9990234375 469.000976562 c 2
 -39.9990234375 355.62890625 l 2
 -41.4248046875 348.060546875 -40.39453125 340.78515625 -37.6240234375 334.30078125 c 0
 -33.765625 323.327148438 -25.587890625 315.958984375 -15.9287109375 312.196289062 c 0
 -2.4697265625 305.85546875 13.974609375 306.376953125 26.6552734375 318.463867188 c 0
 30.3603515625 321.540039062 33.5048828125 325.38671875 35.8095703125 330.00390625 c 0
 106.8984375 429.974609375 178.936523438 429 250 429 c 0
 388 429 460 330 460 230 c 0
 460 128 388 30 250 30 c 0
 178 30 105 28 33 132 c 0
 2 176 -63 130 -33 86 c 0
 61 -48 156 -50 250 -50 c 0
 444 -50 540 90 540 230 c 0
 540 368 444 509 250 509 c 0
 180.278320312 509 110.005859375 508.450195312 40 452.669921875 c 1
EndSplineSet
EndChar

StartChar: ltr108
Encoding: 108 108 38
Width: 650
GlyphClass: 2
Flags: MW
HStem: 426 80<333 376 376 376 456 500>
LayerCount: 2
Fore
SplineSet
-40 3.73046875 m 2
 -41.92578125 -13.8291015625 -33.4208984375 -32.4052734375 -11 -39 c 2
 405 -155 l 2
 412.173828125 -156.931640625 418.7578125 -157.130859375 424.64453125 -156 c 2
 500 -156 l 2
 553 -156 553 -76 500 -76 c 2
 456 -76 l 1
 456 426 l 1
 500 426 l 2
 553 426 553 506 500 506 c 2
 416 506 l 1
 333 506 l 2
 280 506 280 426 333 426 c 2
 376 426 l 1
 376 -62.779296875 l 1
 40 30.9130859375 l 1
 40 116 l 2
 40 169 -40 169 -40 116 c 2
 -40 3.73046875 l 2
EndSplineSet
EndChar

StartChar: ltr109
Encoding: 109 109 39
Width: 650
GlyphClass: 2
Flags: MW
HStem: -40 80<133.76 500 133.76 500 133.76 526.5> 429 80
VStem: 460 80<324.5 396>
LayerCount: 2
Fore
SplineSet
540 351 m 0
 540 497 444 509.000976562 333 509.000976562 c 0
 173 508.000976562 128 361.000976562 128 361.000976562 c 1
 52.5244140625 40.0009765625 l 1
 0 40.0009765625 l 2
 -53 40.0009765625 -53 -39.9990234375 0 -39.9990234375 c 2
 79.8544921875 -39.9990234375 l 2
 82.7236328125 -40.2880859375 85.619140625 -40.29296875 88.48046875 -40 c 2
 500 -40 l 2
 553 -40 553 40 500 40 c 2
 133.759765625 40 l 1
 206 341 l 1
 206 341 232 429 333 429 c 0
 388 429 460 441 460 351 c 0
 460 298 540 298 540 351 c 0
EndSplineSet
EndChar

StartChar: ltr110
Encoding: 110 110 40
Width: 650
GlyphClass: 2
Flags: MW
HStem: -40 80 426 80<132 193.5>
VStem: -40 80<188.5 277 188.5 305.002> 376 80
LayerCount: 2
Fore
SplineSet
167 506 m 0
 69 506 -40 377.001953125 -40 233.001953125 c 0
 -40 88.001953125 69 -39.998046875 167 -39.998046875 c 0
 255.20703125 -39.998046875 326.364257812 16.6748046875 376 106.249023438 c 1
 376 0.001953125 l 2
 376 -12.52734375 380.470703125 -22.0947265625 387.298828125 -28.7001953125 c 0
 393.904296875 -35.5283203125 403.471679688 -39.9990234375 416.000976562 -39.9990234375 c 2
 500.000976562 -39.9990234375 l 2
 553.000976562 -39.9990234375 553.000976562 40.0009765625 500.000976562 40.0009765625 c 2
 456.000976562 40.0009765625 l 1
 456.000976562 426.000976562 l 1
 500.000976562 426.000976562 l 2
 553.000976562 426.000976562 553.000976562 506.000976562 500.000976562 506.000976562 c 2
 416.000976562 506.000976562 l 2
 403.471679688 506.000976562 393.904296875 501.530273438 387.298828125 494.702148438 c 0
 380.470703125 488.096679688 376 478.529296875 376 466 c 0
 376 270 319 40 167 40 c 0
 97 40 40 144 40 233 c 0
 40 321 97 426 167 426 c 0
 220 426 220 506 167 506 c 0
EndSplineSet
EndChar

StartChar: ltr111
Encoding: 111 111 41
Width: 650
GlyphClass: 2
Flags: MW
HStem: -40 80<0 43.8828 -26.5 78.9688 -26.5 88.4131 123 376.883 456 500> 426 80<222.5 277.5>
VStem: 43.8829 79.1171 376.883 79.1172
LayerCount: 2
Fore
SplineSet
123 40 m 1
 123 349 l 2
 123 438 195 426 250 426 c 0
 305 426 376 438 376 349 c 2
 376.8828125 40 l 1
 123 40 l 1
456 40 m 1
 456 349 l 2
 456 494 361 506 250 506 c 0
 139 506 43 494 43 349 c 2
 43.8828125 40 l 1
 0 40 l 2
 -53 40 -53 -40 -0 -40 c 2
 78.96875 -40 l 2
 82.10546875 -40.337890625 85.2802734375 -40 88.4130859375 -40 c 2
 411.96875 -40 l 2
 415.10546875 -40.337890625 418.280273438 -40 421.413085938 -40 c 2
 500 -40 l 2
 553 -40 553 40 500 40 c 2
 456 40 l 1
EndSplineSet
EndChar

StartChar: ltr112
Encoding: 112 112 42
Width: 650
GlyphClass: 2
Flags: MW
HStem: -40 80<250 500 456 500 456 500 456 526.5> 426 80<456 500>
VStem: -40 80
LayerCount: 2
Fore
SplineSet
500 506 m 2
 416.000976562 506 l 2
 403.471679688 506 393.904296875 501.529296875 387.298828125 494.701171875 c 0
 380.471679688 488.095703125 376.000976562 478.528320312 376.000976562 465.999023438 c 2
 376.000976562 39.9990234375 l 1
 250.000976562 39.9990234375 l 2
 112.000976562 39.9990234375 40.0009765625 134.999023438 40.0009765625 232.999023438 c 0
 40.0009765625 320.147460938 98.1181640625 406.48828125 210.000976562 423.127929688 c 1
 210.000976562 232.999023438 l 2
 210.000976562 179.999023438 290.000976562 179.999023438 290.000976562 232.999023438 c 2
 290.000976562 465.999023438 l 2
 290.000976562 478.528320312 285.530273438 488.095703125 278.702148438 494.701171875 c 0
 272.096679688 501.529296875 262.529296875 506 250 506 c 0
 54 506 -40 368 -40 233 c 0
 -40 97 54 -40 250 -40 c 2
 416 -40 l 1
 500 -40 l 2
 553 -40 553 40 500 40 c 2
 456 40 l 1
 456 426 l 1
 500 426 l 2
 553 426 553 506 500 506 c 2
EndSplineSet
EndChar

StartChar: ltr113
Encoding: 113 113 43
Width: 650
GlyphClass: 2
Flags: MW
HStem: -50 80<180.502 276.502 180.502 276.502> 429 80<180.502 284.934 152.502 285.555>
VStem: -40 80
LayerCount: 2
Fore
SplineSet
540 355.8359375 m 2
 540.001953125 468.999023438 l 2
 540.001953125 521.999023438 460.001953125 521.999023438 460.001953125 468.999023438 c 2
 460.001953125 452.329101562 l 1
 389.728515625 508.447265625 319.865234375 509 250.001953125 509 c 0
 55.001953125 509 -39.998046875 368 -39.998046875 230 c 0
 -39.998046875 90 55.001953125 -50 250.001953125 -50 c 0
 303.001953125 -50 303.001953125 30 250.001953125 30 c 0
 111.001953125 30 40.001953125 128 40.001953125 230 c 0
 40.001953125 330 111.001953125 429 250.001953125 429 c 0
 321.107421875 429 392.212890625 429.975585938 464.28125 329.829101562 c 0
 466.873046875 324.705078125 470.50390625 320.538085938 474.786132812 317.328125 c 0
 488.303710938 305.69140625 505.295898438 306.063476562 518.64453125 313.3671875 c 0
 526.298828125 317.008789062 532.780273438 323.065429688 536.53125 331.537109375 c 0
 540.223632812 338.7421875 541.73828125 347.09765625 540 355.8359375 c 2
EndSplineSet
EndChar

StartChar: ltr114
Encoding: 114 114 44
Width: 650
GlyphClass: 2
Flags: W
LayerCount: 2
Fore
SplineSet
226.232421875 -110 m 1
 442.896484375 426.002929688 l 1
 500.001953125 426.002929688 l 2
 553.001953125 426.002929688 553.001953125 506.002929688 500.001953125 506.002929688 c 2
 415.1796875 506.002929688 l 1
 413.990234375 506.002929688 l 1
 0.001953125 506.002929688 l 2
 -12.52734375 506.002929688 -22.0947265625 501.532226562 -28.7001953125 494.704101562 c 0
 -35.5283203125 488.098632812 -39.9990234375 478.53125 -39.9990234375 466.001953125 c 2
 -39.9990234375 349.001953125 l 2
 -39.9990234375 296.001953125 40.0009765625 296.001953125 40.0009765625 349.001953125 c 2
 40.0009765625 426.001953125 l 1
 356.768554688 426.001953125 l 1
 131.940429688 -130.200195312 l 2
 130.662109375 -132.676757812 129.645507812 -135.2890625 128.889648438 -137.981445312 c 0
 124.364257812 -151.432617188 126.923828125 -163.30859375 133.352539062 -172.3046875 c 0
 139.666992188 -182.6015625 150.8828125 -190 167 -190 c 2
 167.822265625 -190 l 2
 168.21875 -190.005859375 168.615234375 -190 169.01171875 -190 c 2
 250 -190 l 2
 303 -190 303 -110 250 -110 c 2
 226.232421875 -110 l 1
EndSplineSet
EndChar

StartChar: ltr115
Encoding: 115 115 45
Width: 650
GlyphClass: 2
Flags: MW
HStem: -40 80<333 376 456.001 500.001> 78 76 194.989 80.4241 426 80<-0.000976562 48.3418 48.3418 48.3418 456.001 500.001>
LayerCount: 2
Fore
SplineSet
55 174 m 0
 104 127 157 101 239 78 c 0
 290 63 312 140 261 154 c 0
 195 173 150 193 111 232 c 0
 73 269 17 212 55 174 c 0
333 -40 m 2
 500.000976562 -40 l 2
 553.000976562 -40 553.000976562 40 500.000976562 40 c 2
 456.000976562 40 l 1
 456.000976562 426 l 1
 500.000976562 426 l 2
 553.000976562 426 553.000976562 506 500.000976562 506 c 2
 416.000976562 506 l 2
 403.471679688 506 393.904296875 501.529296875 387.298828125 494.701171875 c 0
 380.470703125 488.095703125 376 478.528320312 376 465.999023438 c 2
 376 275.412109375 l 1
 249.709960938 290.372070312 123 372.872070312 123 465.999023438 c 0
 123 478.528320312 118.529296875 488.095703125 111.701171875 494.701171875 c 0
 105.095703125 501.529296875 95.5283203125 506 82.9990234375 506 c 2
 -0.0009765625 506 l 2
 -53.0009765625 506 -53.0009765625 426 -0.0009765625 426 c 2
 48.341796875 426 l 1
 77.0341796875 316.791992188 217.453125 210.681640625 376 194.989257812 c 1
 376 40 l 1
 333 40 l 2
 280 40 280 -40 333 -40 c 2
EndSplineSet
EndChar

StartChar: ltr116
Encoding: 116 116 46
Width: 650
GlyphClass: 2
Flags: MW
HStem: 426 80<167 210 210 210 290 333>
LayerCount: 2
Fore
SplineSet
167 426 m 2
 210 426 l 1
 210 -53.5517578125 l 1
 40 25.328125 l 1
 40 116 l 2
 40 169 -40 169 -40 116 c 2
 -40 4.689453125 l 2
 -41.359375 -4.751953125 -39.5322265625 -14.5849609375 -33.6220703125 -22.7841796875 c 0
 -28.701171875 -30.2158203125 -21.373046875 -35.2060546875 -13.2197265625 -37.7548828125 c 2
 226.337890625 -148.91015625 l 2
 232.836914062 -153.861328125 240.913085938 -156.783203125 250 -156.395507812 c 0
 259.086914062 -156.783203125 267.163085938 -153.861328125 273.662109375 -148.91015625 c 2
 513.219726562 -37.7548828125 l 2
 521.373046875 -35.2060546875 528.701171875 -30.2158203125 533.622070312 -22.7841796875 c 0
 539.532226562 -14.5849609375 541.359375 -4.751953125 540 4.689453125 c 2
 540 116 l 2
 540 169 460 169 460 116 c 2
 460 25.328125 l 1
 290 -53.5517578125 l 1
 290 426 l 1
 333 426 l 2
 386 426 386 506 333 506 c 2
 250 506 l 1
 167 506 l 2
 114 506 114 426 167 426 c 2
EndSplineSet
EndChar

StartChar: ltr117
Encoding: 117 117 47
Width: 650
GlyphClass: 2
Flags: MW
HStem: -40 80 426 80
VStem: 43 80
LayerCount: 2
Fore
SplineSet
388.26171875 495.66015625 m 2
 227.000976562 381.998046875 l 2
 183.000976562 350.998046875 229.000976562 285.998046875 273.000976562 315.998046875 c 2
 376.000976562 388.594726562 l 1
 376.000976562 39.998046875 l 1
 250.000976562 39.998046875 l 2
 112.000976562 39.998046875 123.000976562 143.998046875 123.000976562 232.998046875 c 2
 123.000976562 465.998046875 l 2
 123.000976562 478.52734375 118.530273438 488.094726562 111.702148438 494.700195312 c 0
 105.096679688 501.528320312 95.529296875 505.999023438 83 505.999023438 c 2
 0 505.999023438 l 2
 -53 505.999023438 -53 425.999023438 0 425.999023438 c 2
 43 425.999023438 l 1
 43 232.999023438 l 2
 43 87.9990234375 54 -40.0009765625 250 -40.0009765625 c 2
 500 -40.0009765625 l 2
 553 -40.0009765625 553 39.9990234375 500 39.9990234375 c 2
 456 39.9990234375 l 1
 456 425.999023438 l 1
 500 425.999023438 l 2
 553 425.999023438 553 505.999023438 500 505.999023438 c 2
 423.592773438 505.999023438 l 2
 416.869140625 507.352539062 409.573242188 506.866210938 402.151367188 503.913085938 c 0
 396.642578125 502.119140625 392.012695312 499.25390625 388.26171875 495.66015625 c 2
EndSplineSet
EndChar

StartChar: ltr118
Encoding: 118 118 48
Width: 650
GlyphClass: 2
Flags: MW
HStem: 426 80<-0.000976562 54.6748 54.6748 54.6748 139.991 166.998 332.998 359.118 359.118 359.118 444.379 499.997>
LayerCount: 2
Fore
SplineSet
331.485351562 -109.251953125 m 1
 292.624023438 -0.009765625 l 1
 444.37890625 426 l 1
 499.997070312 426 l 2
 552.997070312 426 552.997070312 506 499.997070312 506 c 2
 420.563476562 506 l 2
 416.864257812 506.485351562 413.109375 506.5 409.420898438 506 c 2
 332.998046875 506 l 2
 279.998046875 506 279.998046875 426 332.998046875 426 c 2
 359.118164062 426 l 1
 249.883789062 119.354492188 l 1
 139.991210938 426 l 1
 166.998046875 426 l 2
 219.998046875 426 219.998046875 506 166.998046875 506 c 2
 89.5751953125 506 l 2
 85.88671875 506.5 82.1318359375 506.485351562 78.4326171875 506 c 2
 -0.0009765625 506 l 2
 -53.0009765625 506 -53.0009765625 426 -0.0009765625 426 c 2
 54.6748046875 426 l 1
 209.490234375 -5.9990234375 l 2
 210.12890625 -11.71484375 212.080078125 -16.8857421875 214.979492188 -21.37890625 c 2
 263.978515625 -159.130859375 l 2
 266.228515625 -168.958007812 271.920898438 -177.912109375 281.103515625 -183.400390625 c 0
 288.970703125 -188.48828125 298.274414062 -190.157226562 307.270507812 -189.038085938 c 2
 416 -190 l 2
 469 -190 470 -110 416 -110 c 2
 331.485351562 -109.251953125 l 1
EndSplineSet
EndChar

StartChar: ltr119
Encoding: 119 119 49
Width: 650
GlyphClass: 2
Flags: MW
HStem: -50 80<180.5 319 180.5 347> 429 80<180.5 319>
VStem: -40 80<179 280 179 299> 460 80<179 280>
LayerCount: 2
Fore
SplineSet
250 429 m 0
 388 429 460 330 460 230 c 0
 460 128 388 30 250 30 c 0
 111 30 40 128 40 230 c 0
 40 330 111 429 250 429 c 0
250 509 m 0
 55 509 -40 368 -40 230 c 0
 -40 90 55 -50 250 -50 c 0
 444 -50 540 90 540 230 c 0
 540 368 444 509 250 509 c 0
EndSplineSet
EndChar

StartChar: ltr120
Encoding: 120 120 50
Width: 650
GlyphClass: 2
Flags: MW
HStem: -50 80<214 286 214 297>
LayerCount: 2
Fore
SplineSet
250 394 m 1
 451 108 l 1
 394 29 322 30 250 30 c 0
 178 30 105 28 49 108 c 1
 250 394 l 1
217 486 m 2
 -33 131 l 2
 -43 117 -43 99 -33 85 c 0
 61 -48 156 -50 250 -50 c 0
 344 -50 438 -49 533 85 c 0
 543 99 543 117 533 131 c 2
 283 486 l 2
 267 508 233 508 217 486 c 2
EndSplineSet
EndChar

StartChar: ltr121
Encoding: 121 121 51
Width: 650
GlyphClass: 2
Flags: MW
HStem: 426 80<-0 54.6758 54.6758 54.6758 139.991 146.06 146.06 146.06 333 359.155 359.155 359.155 444.382 500>
LayerCount: 2
Fore
SplineSet
420.56640625 506 m 2
 416.8671875 506.485351562 413.111328125 506.5 409.422851562 506 c 2
 333 506 l 2
 280 506 280 426 333 426 c 2
 359.155273438 426 l 1
 250 119 l 1
 139.991210938 426 l 1
 146.059570312 426 l 1
 217 326 l 2
 248 282 313 329 283 372 c 2
 201.39453125 487.034179688 l 2
 198.506835938 492.171875 194.451171875 496.662109375 189.227539062 499.982421875 c 0
 180.510742188 506.126953125 170.64453125 507.708984375 161.352539062 506 c 2
 89.576171875 506 l 2
 85.8876953125 506.5 82.1328125 506.485351562 78.43359375 506 c 2
 0 506 l 2
 -53 506 -53 426 -0 426 c 2
 54.67578125 426 l 1
 212 -13 l 2
 224 -46 276 -46 288 -13 c 2
 444.381835938 426 l 1
 500 426 l 2
 553 426 553 506 500 506 c 2
 420.56640625 506 l 2
EndSplineSet
EndChar

StartChar: ltr122
Encoding: 122 122 52
Width: 650
GlyphClass: 2
Flags: MW
HStem: 426.273 79.8192
LayerCount: 2
Fore
SplineSet
-40 116 m 2
 -39.9990234375 0.001953125 l 2
 -39.9990234375 -12.52734375 -35.5283203125 -22.0947265625 -28.7001953125 -28.7001953125 c 0
 -22.0947265625 -35.5283203125 -12.52734375 -39.9990234375 0.001953125 -39.9990234375 c 2
 416.001953125 -39.9990234375 l 1
 500.001953125 -39.9990234375 l 2
 553.001953125 -39.9990234375 553.001953125 40.0009765625 500.001953125 40.0009765625 c 2
 456.001953125 40.0009765625 l 1
 456.001953125 660.000976562 l 1
 500.001953125 660.000976562 l 2
 553.001953125 660.000976562 553.001953125 740.000976562 500.001953125 740.000976562 c 2
 416.001953125 740.000976562 l 2
 394.001953125 740.000976562 376.001953125 722.000976562 376.001953125 700.000976562 c 2
 376.001953125 506.092773438 l 1
 137.546875 507.09765625 121.595703125 513.47265625 20.0009765625 372 c 0
 -10.9990234375 329 54.0009765625 282 86.0009765625 326 c 0
 170.244140625 443.940429688 192.279296875 428.704101562 376 426.272460938 c 1
 376 40 l 1
 40 40 l 1
 40 116 l 2
 40 169 -40 169 -40 116 c 2
EndSplineSet
EndChar

StartChar: ltr48
Encoding: 48 48 53
Width: 650
GlyphClass: 2
Flags: MW
HStem: -40 80<176 323.5 176 342.5> 660 80<176 323.5>
VStem: -40 80<251 447 251 484> 210 80<206.5 466 233 466> 460 80<251 447>
CounterMasks: 1 38
LayerCount: 2
Fore
SplineSet
210 466 m 2
 210 233 l 2
 210 180 290 180 290 233 c 2
 290 466 l 2
 290 519 210 519 210 466 c 2
250 660 m 0
 397 660 460 545 460 349 c 0
 460 153 397 40 250 40 c 0
 102 40 40 153 40 349 c 0
 40 545 102 660 250 660 c 0
250 740 m 0
 64 740 -40 619 -40 349 c 0
 -40 79 64 -40 250 -40 c 0
 435 -40 540 79 540 349 c 0
 540 619 435 740 250 740 c 0
EndSplineSet
EndChar

StartChar: ltr49
Encoding: 49 49 54
Width: 650
GlyphClass: 2
Flags: MW
HStem: -40 80<0 210 290 500>
LayerCount: 2
Fore
SplineSet
0 -40 m 2
 500 -40 l 2
 553 -40 553 40 500 40 c 2
 290 40 l 1
 290 700 l 2
 290 722 272 740 250 740 c 2
 0 740 l 2
 -53 740 -53 660 0 660 c 2
 210 660 l 1
 210 40 l 1
 0 40 l 2
 -53 40 -53 -40 0 -40 c 2
EndSplineSet
EndChar

StartChar: ltr50
Encoding: 50 50 55
Width: 650
GlyphClass: 2
Flags: MW
HStem: -40 80<0.000976562 500.001> 193 80 660 80<203.811 318.501> 662.337 21G
VStem: -40 80 459.998 80.0001
LayerCount: 2
Fore
SplineSet
540 465 m 2xec
 543 612 445.000976562 740 250.000976562 740 c 0xec
 157.62109375 740 87.900390625 709.12109375 40.0009765625 662.336914062 c 1xdc
 40.0009765625 700 l 2
 40.0009765625 753 -39.9990234375 753 -39.9990234375 700 c 2
 -39.9990234375 466 l 2
 -39.9990234375 439.5 -19.9990234375 426.25 0.0009765625 426.25 c 0
 20.0009765625 426.25 40.0009765625 439.5 40.0009765625 466 c 0
 40.0009765625 563 112.000976562 660 250.000976562 660 c 0
 387.000976562 660 463.000976562 574 460.000976562 467 c 0
 459.989257812 466.376953125 459.999023438 465.76171875 459.999023438 465.153320312 c 0
 459.5234375 362.5078125 372.436523438 273.000976562 167.000976562 273.000976562 c 0
 114.000976562 273.000976562 114.000976562 193.000976562 167.000976562 193.000976562 c 0
 458.186523438 193.000976562 539.546875 334.209960938 539.998046875 464.904296875 c 2
 540 465 l 2xec
0.0009765625 -40 m 2
 500.000976562 -40 l 2
 553.000976562 -40 553.000976562 40 500.000976562 40 c 2
 0.0009765625 40 l 2
 -52.9990234375 40 -52.9990234375 -40 0.0009765625 -40 c 2
EndSplineSet
EndChar

StartChar: ltr51
Encoding: 51 51 56
Width: 650
GlyphClass: 2
Flags: MW
HStem: -40 80<181 319 181 347> 309 80<167 333> 660 80<203.81 319> 662.337 21G
VStem: -40 80<184 259.5 184 259.5 452.75 466 466 514.5 662.337 700> 461 79<183 232>
LayerCount: 2
Fore
SplineSet
167 309 m 2xcc
 333 309 l 2
 386 309 386 389 333 389 c 2
 167 389 l 2
 114 389 114 309 167 309 c 2xcc
0 426.25 m 0
 20 426.25 40 439.5 40 466 c 0
 40 563 112 660 250 660 c 0
 388 660 460 563 460 466 c 2
 461 232 l 2
 461 134 388 40 250 40 c 0
 112 40 40 135 40 233 c 0
 40 286 -40 286 -40 233 c 0
 -40 97 54 -40 250 -40 c 0
 444 -40 540 97 540 233 c 2
 541 465 l 2
 541 601 444 740 250 740 c 0xec
 157.620117188 740 87.8994140625 709.12109375 40 662.336914062 c 1xdc
 40 700 l 2
 40 753 -40 753 -40 700 c 2
 -40 466 l 2
 -40 439.5 -20 426.25 0 426.25 c 0
EndSplineSet
EndChar

StartChar: ltr52
Encoding: 52 52 57
Width: 650
GlyphClass: 2
Flags: MW
HStem: -40 80<333 376 456 500> 660 80<0 43 43 43 123 167 333 376 376 376 456 500>
LayerCount: 2
Fore
SplineSet
333 -40 m 2
 500 -40 l 2
 553 -40 553 40 500 40 c 2
 456 40 l 1
 456 660 l 1
 500 660 l 2
 553 660 553 740 500 740 c 2
 333 740 l 2
 280 740 280 660 333 660 c 2
 376 660 l 1
 376 389 l 1
 123 389 l 1
 123 660 l 1
 167 660 l 2
 220 660 220 740 167 740 c 2
 0 740 l 2
 -53 740 -53 660 0 660 c 2
 43 660 l 1
 43 349 l 2
 43 327 61 309 83 309 c 2
 376 309 l 1
 376 40 l 1
 333 40 l 2
 280 40 280 -40 333 -40 c 2
EndSplineSet
EndChar

StartChar: ltr53
Encoding: 53 53 58
Width: 650
GlyphClass: 2
Flags: MW
HStem: -40 80 426 80
VStem: -40 80<183.999 259.499 183.999 259.499> 460 80<183.999 283.999 582 660>
LayerCount: 2
Fore
SplineSet
540 582 m 2
 540 699.999023438 l 2
 540 712.528320312 535.529296875 722.095703125 528.702148438 728.701171875 c 0
 522.096679688 735.529296875 512.529296875 740 500 740 c 2
 0 740 l 2
 -53 740 -53 660 0 660 c 2
 460 660 l 1
 460 582 l 2
 460 529 540 529 540 582 c 2
167 425.999023438 m 0
 373 425.999023438 460 334.999023438 460 232.999023438 c 0
 460 134.999023438 388 39.9990234375 250 39.9990234375 c 0
 112 39.9990234375 40 134.999023438 40 232.999023438 c 0
 40 285.999023438 -40 285.999023438 -40 232.999023438 c 0
 -40 96.9990234375 54 -40.0009765625 250 -40.0009765625 c 0
 444 -40.0009765625 540 96.9990234375 540 232.999023438 c 0
 540 362.999023438 459 505.999023438 167 505.999023438 c 0
 114 505.999023438 114 425.999023438 167 425.999023438 c 0
EndSplineSet
EndChar

StartChar: ltr54
Encoding: 54 54 59
Width: 650
GlyphClass: 2
Flags: MW
HStem: -40 80 426 80
VStem: -40 80<183.999 281.499 183.999 300.499> 460 80<183.999 281.499 582 660>
LayerCount: 2
Fore
SplineSet
540 582 m 2
 540 699.999023438 l 2
 540 712.528320312 535.529296875 722.095703125 528.702148438 728.701171875 c 0
 522.096679688 735.529296875 512.529296875 740 500 740 c 2
 0 740 l 2
 -53 740 -53 660 0 660 c 2
 460 660 l 1
 460 582 l 2
 460 529 540 529 540 582 c 2
250 39.9990234375 m 0
 112 39.9990234375 40 134.999023438 40 232.999023438 c 0
 40 329.999023438 112 425.999023438 250 425.999023438 c 0
 388 425.999023438 460 329.999023438 460 232.999023438 c 0
 460 134.999023438 388 39.9990234375 250 39.9990234375 c 0
250 -40.0009765625 m 0
 444 -40.0009765625 540 96.9990234375 540 232.999023438 c 0
 540 367.999023438 444 505.999023438 250 505.999023438 c 0
 54 505.999023438 -40 367.999023438 -40 232.999023438 c 0
 -40 96.9990234375 54 -40.0009765625 250 -40.0009765625 c 0
EndSplineSet
EndChar

StartChar: ltr55
Encoding: 55 55 60
Width: 650
GlyphClass: 2
Flags: MW
HStem: -40 80<306.5 333> 309 80<167 250> 640 20G<40 376 376 376>
LayerCount: 2
Fore
SplineSet
167 309 m 2
 250 309 l 2
 303 309 303 389 250 389 c 2
 167 389 l 2
 114 389 114 309 167 309 c 2
333 -40 m 2
 500.000976562 -39.9990234375 l 2
 553.000976562 -39.9990234375 553.000976562 40.0009765625 500.000976562 40.0009765625 c 2
 456.000976562 40.0009765625 l 1
 456.000976562 660.000976562 l 1
 500.000976562 660.000976562 l 2
 553.000976562 660.000976562 553.000976562 740.000976562 500.000976562 740.000976562 c 2
 0.0009765625 740.000976562 l 2
 -12.5283203125 740.000976562 -22.095703125 735.530273438 -28.701171875 728.702148438 c 0
 -35.529296875 722.096679688 -40 712.529296875 -40 700 c 2
 -40 466 l 2
 -40 413 40 413 40 466 c 2
 40 660 l 1
 376 660 l 1
 376 40 l 1
 333 40 l 2
 280 40 280 -40 333 -40 c 2
EndSplineSet
EndChar

StartChar: ltr56
Encoding: 56 56 61
Width: 650
GlyphClass: 2
Flags: MW
HStem: -40 80<181 319 181 347> 309 80<167 333> 660 80<181 319>
VStem: -40 80<165 466 233 466> 460 80<184 466 233 466>
LayerCount: 2
Fore
SplineSet
167 309 m 2
 333 309 l 2
 386 309 386 389 333 389 c 2
 167 389 l 2
 114 389 114 309 167 309 c 2
40 233 m 2
 40 466 l 2
 40 563 112 660 250 660 c 0
 388 660 460 563 460 466 c 2
 460 233 l 2
 460 135 388 40 250 40 c 0
 112 40 40 135 40 233 c 2
540 233 m 2
 540 466 l 2
 540 601 444 740 250 740 c 0
 54 740 -40 601 -40 466 c 2
 -40 233 l 2
 -40 97 54 -40 250 -40 c 0
 444 -40 540 97 540 233 c 2
EndSplineSet
EndChar

StartChar: ltr57
Encoding: 57 57 62
Width: 650
GlyphClass: 2
Flags: MW
HStem: -40 80<0 500> 193 80<181 319 181 347> 660 80<181 319>
VStem: -40 80<417 514.5 417 533.5> 460 80<417 514.5>
LayerCount: 2
Fore
SplineSet
0 -40 m 2
 500 -40 l 2
 553 -40 553 40 500 40 c 2
 0 40 l 2
 -53 40 -53 -40 0 -40 c 2
250 660 m 0
 388 660 460 563 460 466 c 0
 460 368 388 273 250 273 c 0
 112 273 40 368 40 466 c 0
 40 563 112 660 250 660 c 0
250 740 m 0
 54 740 -40 601 -40 466 c 0
 -40 330 54 193 250 193 c 0
 444 193 540 330 540 466 c 0
 540 601 444 740 250 740 c 0
EndSplineSet
EndChar

StartChar: ltr33
Encoding: 33 33 64
Width: 351
GlyphClass: 2
Flags: W
LayerCount: 2
Fore
SplineSet
35 -20 m 1
 270 309 l 1
 310 378 206 438 166 369 c 2
 -35 20 l 2
 -61 -26 8 -66 35 -20 c 1
35 329 m 1
 270 660 l 1
 310 729 206 789 167 720 c 2
 -35 369 l 2
 -61 323 8 283 35 329 c 1
EndSplineSet
EndChar

StartChar: ltr34
Encoding: 34 34 65
Width: 650
GlyphClass: 2
Flags: W
LayerCount: 2
Fore
SplineSet
60 667 m 2
 393 433 l 2
 437 403 483 468 439 499 c 2
 106 733 l 2
 62 763 16 698 60 667 c 2
EndSplineSet
EndChar

StartChar: ltr35
Encoding: 35 35 66
Width: 650
GlyphClass: 2
Flags: MW
HStem: 193 80<0 255.116 255.116 255.116 353.889 500> 426 80<0 146.06 244.692 500>
LayerCount: 2
Fore
SplineSet
338.87890625 273 m 2
 334.30078125 273.834960938 329.583984375 273.884765625 324.936523438 273 c 2
 0 273 l 2
 -53 273 -53 193 0 193 c 2
 255.116210938 193 l 1
 134 23 l 2
 103 -20 169 -67 200 -23 c 2
 353.888671875 193 l 1
 500 193 l 2
 553 193 553 273 500 273 c 2
 338.87890625 273 l 2
146.059570312 506 m 1
 0 506 l 2
 -53 506 -53 426 -0 426 c 2
 161.352539062 426 l 2
 165.892578125 425.165039062 170.569335938 425.115234375 175.182617188 426 c 2
 500 426 l 2
 553 426 553 506 500 506 c 2
 244.692382812 506 l 1
 366 677 l 2
 396 720 331 767 300 723 c 2
 146.059570312 506 l 1
EndSplineSet
EndChar

StartChar: ltr36
Encoding: 36 36 67
Width: 650
GlyphClass: 2
Flags: MW
HStem: -40 80<167 220.271 302.547 333> 542 80<0 43 -26.5 43 123 210 290 363.453 363.453 363.453 445.729 500>
VStem: 43 80<322.5 542 349 542 622 700> 210 80<322.5 542 349 542 622 700>
LayerCount: 2
Fore
SplineSet
167 -40 m 2
 333 -40 l 2
 386 -40 386 40 333 40 c 2
 302.546875 40 l 1
 445.728515625 542 l 1
 500 542 l 2
 553 542 553 622 500 622 c 2
 290 622 l 1
 290 700 l 2
 290 753 210 753 210 700 c 2
 210 622 l 1
 123 622 l 1
 123 700 l 2
 123 753 43 753 43 700 c 2
 43 622 l 1
 0 622 l 2
 -53 622 -53 542 0 542 c 2
 43 542 l 1
 43 349 l 2
 43 296 123 296 123 349 c 2
 123 542 l 1
 210 542 l 1
 210 349 l 2
 210 296 290 296 290 349 c 2
 290 542 l 1
 363.453125 542 l 1
 220.271484375 40 l 1
 167 40 l 2
 114 40 114 -40 167 -40 c 2
EndSplineSet
EndChar

StartChar: ltr38
Encoding: 38 38 68
Width: 650
GlyphClass: 2
Flags: MW
HStem: -39.32 21G -39.32 21G 426 80<-26.5 0 373 416>
VStem: 128 78<-7.00098 -7.00098>
LayerCount: 2
Fore
SplineSet
0 426 m 2xb0
 50 425.999023438 l 1
 128 -7.0009765625 l 2
 135 -46.0009765625 200 -46.0009765625 206 -7.0009765625 c 2
 284 425.999023438 l 1
 293 425.999023438 l 1
 293 -107.244140625 l 2
 291.369140625 -114.78125 292.2421875 -122.512695312 294.9921875 -129.556640625 c 0
 297.919921875 -138.790039062 303.838867188 -145.58203125 311.166992188 -149.93359375 c 0
 322.344726562 -157.548828125 337.181640625 -159.713867188 352.100585938 -151.413085938 c 0
 354.986328125 -149.995117188 357.698242188 -148.229492188 360.15234375 -146.116210938 c 2
 523 -33 l 2
 534 -25 540 -14 540 0 c 2
 540 116 l 2
 540 169 460 169 460 116 c 2
 460 21 l 1
 373 -39.3203125 l 1
 373 426 l 1
 416 426 l 2
 469 426 469 506 416 506 c 2
 250 506 l 2
 230 506 214 492 211 473 c 2
 167 227 l 1
 122 473 l 2
 119 492 103 506 83 506 c 2
 0 506 l 2
 -53 506 -53 426 0 426 c 2xb0
EndSplineSet
EndChar

StartChar: ltr39
Encoding: 39 39 69
Width: 650
GlyphClass: 2
Flags: W
LayerCount: 2
Fore
SplineSet
83 660 m 2
 324 660 l 1
 217 489 l 2
 187 446 252 399 283 443 c 2
 469 677 l 2
 489 701 468 740 436 740 c 2
 83 740 l 2
 30 740 30 660 83 660 c 2
EndSplineSet
EndChar

StartChar: ltr40
Encoding: 40 40 70
Width: 650
GlyphClass: 2
Flags: MW
VStem: 210.241 79.7592
LayerCount: 2
Fore
SplineSet
210.241210938 309 m 1
 212.202148438 195.155273438 230.091796875 80.6767578125 392.999023438 -33 c 0
 436.999023438 -63 482.999023438 2 438.999023438 33 c 0
 288.999023438 138 289.999023438 244 289.999023438 349 c 0
 289.999023438 455 288.999023438 560 438.999023438 667 c 0
 482.999023438 698 435.999023438 764 392.999023438 733 c 0
 229.971679688 617.447265625 212.174804688 503.499023438 210.236328125 389 c 1
 83 389 l 2
 30 389 30 309 83 309 c 2
 210.241210938 309 l 1
EndSplineSet
EndChar

StartChar: ltr41
Encoding: 41 41 71
Width: 650
GlyphClass: 2
Flags: MW
VStem: 210 79.758
LayerCount: 2
Fore
SplineSet
60 667 m 0
 211 560 210 455 210 349 c 0
 210 244 211 138 60 33 c 0
 16 2 62 -63 106 -33 c 0
 269.801757812 80.6767578125 287.787109375 195.155273438 289.7578125 309 c 1
 416 309 l 2
 469 309 469 389 416 389 c 2
 289.762695312 389 l 1
 287.814453125 503.499023438 269.923828125 617.447265625 106 733 c 0
 63 763 16 698 60 667 c 0
EndSplineSet
EndChar

StartChar: ltr44
Encoding: 44 44 72
Width: 650
GlyphClass: 2
Flags: MW
VStem: 190 120<233 273>
LayerCount: 2
Fore
SplineSet
190 233 m 1
 210 0 l 1
 210 -53 290 -53 290 0 c 1
 310 233 l 1
 310 313 190 313 190 233 c 1
EndSplineSet
EndChar

StartChar: ltr45
Encoding: 45 45 73
Width: 650
GlyphClass: 2
Flags: MW
HStem: 426 80<83 416>
LayerCount: 2
Fore
SplineSet
83 426 m 2
 416 426 l 2
 469 426 469 506 416 506 c 2
 83 506 l 2
 30 506 30 426 83 426 c 2
EndSplineSet
EndChar

StartChar: ltr46
Encoding: 46 46 74
Width: 650
GlyphClass: 2
Flags: MW
VStem: 107 120<233 273> 273 120<233 273>
LayerCount: 2
Fore
SplineSet
273 233 m 1
 293 0 l 1
 293 -53 373 -53 373 0 c 1
 393 233 l 1
 393 313 273 313 273 233 c 1
107 233 m 1
 127 0 l 1
 127 -53 207 -53 207 0 c 1
 227 233 l 1
 227 313 107 313 107 233 c 1
EndSplineSet
EndChar

StartChar: ltr58
Encoding: 58 58 75
Width: 650
GlyphClass: 2
Flags: MW
VStem: -40 80<466 492.5>
LayerCount: 2
Fore
SplineSet
-40 466 m 2
 -39.9990234375 233 l 2
 -39.9990234375 180 40.0009765625 180 40.0009765625 233 c 2
 40.0009765625 309 l 1
 150.000976562 309 l 1
 406.229492188 40 l 1
 0.0009765625 40 l 2
 -52.9990234375 40 -52.9990234375 -40 0.0009765625 -40 c 2
 491.78125 -40 l 2
 499.358398438 -41.62109375 506.958007812 -40.6943359375 513.836914062 -37.9169921875 c 0
 523.822265625 -34.66796875 530.921875 -27.90234375 535.135742188 -19.65234375 c 0
 542.45703125 -7.45703125 543.6484375 8.251953125 533.487304688 22.5654296875 c 0
 531.399414062 25.91015625 528.7890625 28.9423828125 525.65625 31.5048828125 c 2
 196 377 l 2
 188 385 178 389 167 389 c 2
 40 389 l 1
 40 466 l 2
 40 519 -40 519 -40 466 c 2
EndSplineSet
EndChar

StartChar: ltr59
Encoding: 59 59 76
Width: 351
GlyphClass: 2
Flags: MW
VStem: 41 120<700 740> 61 80<-26.5 0>
LayerCount: 2
Fore
SplineSet
41 700 m 2x80
 61 0 l 2
 61 -53 141 -53 141 0 c 2x40
 161 700 l 2
 161 780 41 780 41 700 c 2x80
EndSplineSet
EndChar

StartChar: ltr63
Encoding: 63 63 77
Width: 650
GlyphClass: 2
Flags: MW
HStem: -40 80<223.5 319 223.5 347> 660 80<203.81 319> 662.337 21G
VStem: -40 80<452.75 466 466 514.5 662.337 700> 461 79<183 232>
LayerCount: 2
Fore
SplineSet
40 662.336914062 m 1xb8
 40 700 l 2
 40 753 -40 753 -40 700 c 2
 -40 466 l 2
 -40 439.5 -20 426.25 0 426.25 c 0
 20 426.25 40 439.5 40 466 c 0
 40 563 112 660 250 660 c 0
 388 660 460 563 460 466 c 2
 461 232 l 2
 461 134 388 40 250 40 c 0
 197 40 197 -40 250 -40 c 0
 444 -40 540 97 540 233 c 2
 541 465 l 2
 541 601 444 740 250 740 c 0xd8
 157.620117188 740 87.8994140625 709.12109375 40 662.336914062 c 1xb8
EndSplineSet
EndChar

StartChar: ltr95
Encoding: 95 95 78
Width: 650
GlyphClass: 2
Flags: MW
HStem: -40 80<0 500>
LayerCount: 2
Fore
SplineSet
0 -40 m 2
 500 -40 l 2
 553 -40 553 40 500 40 c 2
 0 40 l 2
 -53 40 -53 -40 0 -40 c 2
EndSplineSet
EndChar
